<?xml version="1.0" encoding="UTF-8"?>
<svg xmlns="http://www.w3.org/2000/svg" xmlns:xlink="http://www.w3.org/1999/xlink" width="85px" height="85px" viewBox="0 0 85 85" version="1.1">
<g id="surface1">
<path style=" stroke:none;fill-rule:nonzero;fill:rgb(0%,0%,0%);fill-opacity:1;" d="M 83.632812 20.457031 C 82.863281 19.425781 81.6875 18.835938 80.402344 18.835938 L 16.449219 18.835938 L 15.621094 15.652344 C 14.964844 13.121094 12.679688 11.355469 10.066406 11.355469 L 1.398438 11.355469 C 0.886719 11.355469 0.46875 11.773438 0.46875 12.289062 C 0.46875 12.800781 0.886719 13.21875 1.398438 13.21875 L 10.066406 13.21875 C 11.832031 13.21875 13.371094 14.414062 13.816406 16.121094 L 24.234375 56.238281 C 24.339844 56.648438 24.710938 56.933594 25.136719 56.933594 L 73.839844 56.933594 C 74.355469 56.933594 74.773438 56.519531 74.773438 56.003906 C 74.773438 55.488281 74.355469 55.070312 73.839844 55.070312 L 25.859375 55.070312 L 23.621094 46.457031 L 73.351562 46.457031 C 75.871094 46.457031 78.132812 44.765625 78.847656 42.347656 L 84.269531 24.015625 C 84.632812 22.78125 84.402344 21.484375 83.632812 20.457031 Z M 82.480469 23.484375 L 77.058594 41.816406 C 76.578125 43.449219 75.050781 44.589844 73.347656 44.589844 L 23.136719 44.589844 L 16.933594 20.703125 L 80.402344 20.703125 C 81.089844 20.703125 81.722656 21.019531 82.136719 21.574219 C 82.550781 22.125 82.675781 22.824219 82.480469 23.484375 Z M 82.480469 23.484375 "/>
<path style=" stroke:none;fill-rule:nonzero;fill:rgb(0%,0%,0%);fill-opacity:1;" d="M 33.5625 73.550781 C 30.050781 73.550781 27.195312 70.695312 27.195312 67.183594 C 27.195312 63.675781 30.050781 60.820312 33.5625 60.820312 C 37.070312 60.820312 39.925781 63.675781 39.925781 67.183594 C 39.925781 70.695312 37.070312 73.550781 33.5625 73.550781 Z M 33.5625 62.6875 C 31.078125 62.6875 29.0625 64.703125 29.0625 67.183594 C 29.0625 69.664062 31.078125 71.683594 33.5625 71.683594 C 36.042969 71.683594 38.0625 69.664062 38.0625 67.183594 C 38.0625 64.703125 36.042969 62.6875 33.5625 62.6875 Z M 33.5625 62.6875 "/>
<path style=" stroke:none;fill-rule:nonzero;fill:rgb(0%,0%,0%);fill-opacity:1;" d="M 64.164062 73.550781 C 60.652344 73.550781 57.796875 70.695312 57.796875 67.183594 C 57.796875 63.675781 60.65625 60.820312 64.164062 60.820312 C 67.675781 60.820312 70.53125 63.675781 70.53125 67.183594 C 70.53125 70.695312 67.671875 73.550781 64.164062 73.550781 Z M 64.164062 62.6875 C 61.683594 62.6875 59.664062 64.703125 59.664062 67.183594 C 59.664062 69.664062 61.683594 71.683594 64.164062 71.683594 C 66.644531 71.683594 68.664062 69.664062 68.664062 67.183594 C 68.664062 64.703125 66.644531 62.6875 64.164062 62.6875 Z M 64.164062 62.6875 "/>
</g>
</svg>
