<?xml version="1.0" encoding="UTF-8"?>
<svg xmlns="http://www.w3.org/2000/svg" xmlns:xlink="http://www.w3.org/1999/xlink" width="1920px" height="613px" viewBox="0 0 1920 613" version="1.1">
<g id="surface1">
<rect x="0" y="0" width="1920" height="613" style="fill:rgb(44.313725%,10.588235%,28.235294%);fill-opacity:1;stroke:none;"/>
<path style="fill:none;stroke-width:1;stroke-linecap:butt;stroke-linejoin:miter;stroke:rgb(39.607843%,11.372549%,24.313725%);stroke-opacity:1;stroke-miterlimit:4;" d="M 769.000651 229.001835 L 1037.000326 260.899266 M 927.000326 880.00102 L 730.999349 737.000408 L 520 659.996941 L 309.000651 537.999592 L 40 599.000816 L 295 763.998777 L 126.500651 879.501427 L 40 599.000816 L -197.000326 493.000612 L 102.000326 381.999388 L -30.999349 229.001835 L 126.500651 79.501427 L -69.000651 -62.999592 " transform="matrix(2.4,0,0,0.76625,0,0)"/>
<path style="fill:none;stroke-width:1;stroke-linecap:butt;stroke-linejoin:miter;stroke:rgb(39.607843%,11.372549%,24.313725%);stroke-opacity:1;stroke-miterlimit:4;" d="M -30.999349 229.001835 L 237.000326 261.001223 L 390 381.999388 L 602.999674 493.000612 L 308.499349 537.5 L 101.500651 381.499796 M 370 905.00102 L 295 763.998777 " transform="matrix(2.4,0,0,0.76625,0,0)"/>
<path style="fill:none;stroke-width:1;stroke-linecap:butt;stroke-linejoin:miter;stroke:rgb(39.607843%,11.372549%,24.313725%);stroke-opacity:1;stroke-miterlimit:4;" d="M 520 659.996941 L 577.999674 842.001427 L 730.999349 737.000408 L 840 599.000816 L 602.999674 493.000612 L 520 659.996941 L 295 763.998777 L 309.000651 537.999592 L 390 381.999388 L 539.000651 268.999796 L 769.000651 229.001835 L 577.5 41.501835 L 370 105.00102 L 295 -36.001223 L 126.500651 79.501427 L 237.000326 261.001223 L 102.000326 381.999388 L 40 599.000816 L -69.000651 737.000408 L 127.000326 880.00102 " transform="matrix(2.4,0,0,0.76625,0,0)"/>
<path style="fill:none;stroke-width:1;stroke-linecap:butt;stroke-linejoin:miter;stroke:rgb(39.607843%,11.372549%,24.313725%);stroke-opacity:1;stroke-miterlimit:4;" d="M 520 -140.003059 L 578.499349 42.50102 L 730.999349 -62.999592 M 602.999674 493.000612 L 539.000651 268.999796 L 237.000326 261.001223 L 370 105.00102 M 902.000326 381.999388 L 539.000651 268.999796 M 390 381.999388 L 102.000326 381.999388 " transform="matrix(2.4,0,0,0.76625,0,0)"/>
<path style="fill:none;stroke-width:1;stroke-linecap:butt;stroke-linejoin:miter;stroke:rgb(39.607843%,11.372549%,24.313725%);stroke-opacity:1;stroke-miterlimit:4;" d="M -222.000326 42.001427 L 126.500651 79.501427 L 370 105.00102 L 539.000651 268.999796 L 577.5 41.501835 L 927.000326 80.00102 L 769.000651 229.001835 L 902.000326 381.999388 L 602.999674 493.000612 L 730.999349 737.000408 M 295 -36.001223 L 577.5 41.501835 M 577.999674 842.001427 L 295 763.998777 M 40 -200.999184 L 127.000326 80.00102 M 102.000326 381.999388 L -260.999349 268.999796 " transform="matrix(2.4,0,0,0.76625,0,0)"/>
<path style=" stroke:none;fill-rule:nonzero;fill:rgb(43.529412%,16.470588%,24.313725%);fill-opacity:1;" d="M 1857.601562 175.472656 C 1857.601562 177.585938 1852.226562 179.300781 1845.601562 179.300781 C 1838.972656 179.300781 1833.601562 177.585938 1833.601562 175.472656 C 1833.601562 173.355469 1838.972656 171.640625 1845.601562 171.640625 C 1852.226562 171.640625 1857.601562 173.355469 1857.601562 175.472656 Z M 1857.601562 175.472656 "/>
<path style=" stroke:none;fill-rule:nonzero;fill:rgb(43.529412%,16.470588%,24.313725%);fill-opacity:1;" d="M 1305.601562 206.121094 C 1305.601562 208.238281 1300.226562 209.953125 1293.601562 209.953125 C 1286.972656 209.953125 1281.601562 208.238281 1281.601562 206.121094 C 1281.601562 204.003906 1286.972656 202.289062 1293.601562 202.289062 C 1300.226562 202.289062 1305.601562 204.003906 1305.601562 206.121094 Z M 1305.601562 206.121094 "/>
<path style=" stroke:none;fill-rule:nonzero;fill:rgb(43.529412%,16.470588%,24.313725%);fill-opacity:1;" d="M 1459.199219 377.761719 C 1459.199219 379.878906 1453.828125 381.59375 1447.199219 381.59375 C 1440.574219 381.59375 1435.199219 379.878906 1435.199219 377.761719 C 1435.199219 375.644531 1440.574219 373.929688 1447.199219 373.929688 C 1453.828125 373.929688 1459.199219 375.644531 1459.199219 377.761719 Z M 1459.199219 377.761719 "/>
<path style=" stroke:none;fill-rule:nonzero;fill:rgb(43.529412%,16.470588%,24.313725%);fill-opacity:1;" d="M 1766.398438 564.726562 C 1766.398438 566.839844 1761.027344 568.558594 1754.398438 568.558594 C 1747.773438 568.558594 1742.398438 566.839844 1742.398438 564.726562 C 1742.398438 562.609375 1747.773438 560.894531 1754.398438 560.894531 C 1761.027344 560.894531 1766.398438 562.609375 1766.398438 564.726562 Z M 1766.398438 564.726562 "/>
<path style=" stroke:none;fill-rule:nonzero;fill:rgb(43.529412%,16.470588%,24.313725%);fill-opacity:1;" d="M 1260 505.722656 C 1260 507.839844 1254.628906 509.558594 1248 509.558594 C 1241.371094 509.558594 1236 507.839844 1236 505.722656 C 1236 503.609375 1241.371094 501.894531 1248 501.894531 C 1254.628906 501.894531 1260 503.609375 1260 505.722656 Z M 1260 505.722656 "/>
<path style=" stroke:none;fill-rule:nonzero;fill:rgb(43.529412%,16.470588%,24.313725%);fill-opacity:1;" d="M 753.601562 412.242188 C 753.601562 414.359375 748.226562 416.074219 741.601562 416.074219 C 734.972656 416.074219 729.601562 414.359375 729.601562 412.242188 C 729.601562 410.128906 734.972656 408.410156 741.601562 408.410156 C 748.226562 408.410156 753.601562 410.128906 753.601562 412.242188 Z M 753.601562 412.242188 "/>
<path style=" stroke:none;fill-rule:nonzero;fill:rgb(43.529412%,16.470588%,24.313725%);fill-opacity:1;" d="M 720 585.414062 C 720 587.53125 714.628906 589.246094 708 589.246094 C 701.371094 589.246094 696 587.53125 696 585.414062 C 696 583.300781 701.371094 581.582031 708 581.582031 C 714.628906 581.582031 720 583.300781 720 585.414062 Z M 720 585.414062 "/>
<path style=" stroke:none;fill-rule:nonzero;fill:rgb(43.529412%,16.470588%,24.313725%);fill-opacity:1;" d="M 108 458.984375 C 108 461.101562 102.628906 462.816406 96 462.816406 C 89.371094 462.816406 84 461.101562 84 458.984375 C 84 456.867188 89.371094 455.152344 96 455.152344 C 102.628906 455.152344 108 456.867188 108 458.984375 Z M 108 458.984375 "/>
<path style=" stroke:none;fill-rule:nonzero;fill:rgb(43.529412%,16.470588%,24.313725%);fill-opacity:1;" d="M 256.800781 292.707031 C 256.800781 294.824219 251.425781 296.539062 244.800781 296.539062 C 238.171875 296.539062 232.800781 294.824219 232.800781 292.707031 C 232.800781 290.589844 238.171875 288.875 244.800781 288.875 C 251.425781 288.875 256.800781 290.589844 256.800781 292.707031 Z M 256.800781 292.707031 "/>
<path style=" stroke:none;fill-rule:nonzero;fill:rgb(43.529412%,16.470588%,24.313725%);fill-opacity:1;" d="M 316.800781 61.300781 C 316.800781 63.414062 311.425781 65.128906 304.800781 65.128906 C 298.171875 65.128906 292.800781 63.414062 292.800781 61.300781 C 292.800781 59.183594 298.171875 57.46875 304.800781 57.46875 C 311.425781 57.46875 316.800781 59.183594 316.800781 61.300781 Z M 316.800781 61.300781 "/>
<path style=" stroke:none;fill-rule:nonzero;fill:rgb(43.529412%,16.470588%,24.313725%);fill-opacity:1;" d="M 900 80.457031 C 900 82.570312 894.628906 84.285156 888 84.285156 C 881.371094 84.285156 876 82.570312 876 80.457031 C 876 78.339844 881.371094 76.625 888 76.625 C 894.628906 76.625 900 78.339844 900 80.457031 Z M 900 80.457031 "/>
<path style=" stroke:none;fill-rule:nonzero;fill:rgb(43.529412%,16.470588%,24.313725%);fill-opacity:1;" d="M 1399.199219 32.183594 C 1399.199219 34.300781 1393.828125 36.015625 1387.199219 36.015625 C 1380.574219 36.015625 1375.199219 34.300781 1375.199219 32.183594 C 1375.199219 30.066406 1380.574219 28.351562 1387.199219 28.351562 C 1393.828125 28.351562 1399.199219 30.066406 1399.199219 32.183594 Z M 1399.199219 32.183594 "/>
<path style=" stroke:none;fill-rule:nonzero;fill:rgb(43.529412%,16.470588%,24.313725%);fill-opacity:1;" d="M 580.800781 199.992188 C 580.800781 202.105469 575.425781 203.824219 568.800781 203.824219 C 562.171875 203.824219 556.800781 202.105469 556.800781 199.992188 C 556.800781 197.875 562.171875 196.160156 568.800781 196.160156 C 575.425781 196.160156 580.800781 197.875 580.800781 199.992188 Z M 580.800781 199.992188 "/>
<path style=" stroke:none;fill-rule:nonzero;fill:rgb(43.529412%,16.470588%,24.313725%);fill-opacity:1;" d="M 948 292.707031 C 948 294.824219 942.628906 296.539062 936 296.539062 C 929.371094 296.539062 924 294.824219 924 292.707031 C 924 290.589844 929.371094 288.875 936 288.875 C 942.628906 288.875 948 290.589844 948 292.707031 Z M 948 292.707031 "/>
</g>
</svg>
