<?xml version="1.0" encoding="UTF-8"?>
<svg xmlns="http://www.w3.org/2000/svg" xmlns:xlink="http://www.w3.org/1999/xlink" width="213px" height="128px" viewBox="0 0 213 128" version="1.1">
<g id="surface1">
<path style=" stroke:none;fill-rule:nonzero;fill:rgb(0%,0%,0%);fill-opacity:1;" d="M 106.378906 0.703125 C 48.273438 0.703125 1.171875 29.011719 1.171875 63.929688 C 1.171875 98.847656 48.273438 127.152344 106.378906 127.152344 C 164.488281 127.152344 211.589844 98.847656 211.589844 63.929688 C 211.589844 29.011719 164.488281 0.703125 106.378906 0.703125 Z M 140.464844 64.140625 C 140.164062 64.996094 139.019531 65.652344 137.582031 65.789062 C 137.398438 65.804688 137.214844 65.8125 137.035156 65.8125 C 135.792969 65.8125 134.625 65.417969 133.992188 64.757812 C 129.390625 59.941406 124.46875 57.015625 119.097656 55.910156 L 119.097656 86.71875 C 119.121094 92.746094 109.863281 98.164062 97.46875 99.09375 C 96.234375 99.183594 95.019531 99.230469 93.816406 99.230469 C 82.148438 99.230469 72.300781 95.003906 71.082031 89.121094 C 70.40625 85.882812 72.382812 82.671875 76.644531 80.085938 C 80.679688 77.636719 86.339844 76.027344 92.585938 75.558594 C 97.960938 75.160156 103.101562 75.675781 107.410156 76.851562 L 107.410156 30.734375 C 107.410156 29.570312 108.980469 28.628906 110.917969 28.628906 C 112.851562 28.628906 114.421875 29.570312 114.421875 30.734375 C 114.421875 36.828125 119.617188 38.914062 126.191406 41.550781 C 134.851562 45.03125 145.628906 49.355469 140.464844 64.140625 Z M 140.464844 64.140625 "/>
</g>
</svg>
