<?xml version="1.0" encoding="UTF-8"?>
<svg xmlns="http://www.w3.org/2000/svg" xmlns:xlink="http://www.w3.org/1999/xlink" width="1920px" height="1497px" viewBox="0 0 1920 1497" version="1.1">
<g id="surface1">
<rect x="0" y="0" width="1920" height="1497" style="fill:rgb(44.313725%,10.588235%,28.235294%);fill-opacity:1;stroke:none;"/>
<path style="fill:none;stroke-width:1;stroke-linecap:butt;stroke-linejoin:miter;stroke:rgb(39.607843%,11.372549%,24.313725%);stroke-opacity:1;stroke-miterlimit:4;" d="M 769.000651 228.999666 L 1037.000326 260.900969 M 927.000326 879.999582 L 730.999349 736.998998 L 520 659.999165 L 309.000651 538.001002 L 40 599.000084 L 295 764.000919 L 126.500651 879.500668 L 40 599.000084 L -197.000326 493.000585 L 102.000326 381.999415 L -30.999349 228.999666 L 126.500651 79.500668 L -69.000651 -63.001002 " transform="matrix(2.4,0,0,1.87125,0,0)"/>
<path style="fill:none;stroke-width:1;stroke-linecap:butt;stroke-linejoin:miter;stroke:rgb(39.607843%,11.372549%,24.313725%);stroke-opacity:1;stroke-miterlimit:4;" d="M -30.999349 228.999666 L 237.000326 260.999081 L 390 381.999415 L 602.999674 493.000585 L 308.499349 537.5 L 101.500651 381.500501 M 370 904.999582 L 295 764.000919 " transform="matrix(2.4,0,0,1.87125,0,0)"/>
<path style="fill:none;stroke-width:1;stroke-linecap:butt;stroke-linejoin:miter;stroke:rgb(39.607843%,11.372549%,24.313725%);stroke-opacity:1;stroke-miterlimit:4;" d="M 520 659.999165 L 577.999674 842.000668 L 730.999349 736.998998 L 840 599.000084 L 602.999674 493.000585 L 520 659.999165 L 295 764.000919 L 309.000651 538.001002 L 390 381.999415 L 539.000651 269.000501 L 769.000651 228.999666 L 577.5 41.499666 L 370 104.999582 L 295 -35.999081 L 126.500651 79.500668 L 237.000326 260.999081 L 102.000326 381.999415 L 40 599.000084 L -69.000651 736.998998 L 127.000326 879.999582 " transform="matrix(2.4,0,0,1.87125,0,0)"/>
<path style="fill:none;stroke-width:1;stroke-linecap:butt;stroke-linejoin:miter;stroke:rgb(39.607843%,11.372549%,24.313725%);stroke-opacity:1;stroke-miterlimit:4;" d="M 520 -140.000835 L 578.499349 42.499582 L 730.999349 -63.001002 M 602.999674 493.000585 L 539.000651 269.000501 L 237.000326 260.999081 L 370 104.999582 M 902.000326 381.999415 L 539.000651 269.000501 M 390 381.999415 L 102.000326 381.999415 " transform="matrix(2.4,0,0,1.87125,0,0)"/>
<path style="fill:none;stroke-width:1;stroke-linecap:butt;stroke-linejoin:miter;stroke:rgb(39.607843%,11.372549%,24.313725%);stroke-opacity:1;stroke-miterlimit:4;" d="M -222.000326 42.000668 L 126.500651 79.500668 L 370 104.999582 L 539.000651 269.000501 L 577.5 41.499666 L 927.000326 79.999582 L 769.000651 228.999666 L 902.000326 381.999415 L 602.999674 493.000585 L 730.999349 736.998998 M 295 -35.999081 L 577.5 41.499666 M 577.999674 842.000668 L 295 764.000919 M 40 -200.999916 L 127.000326 79.999582 M 102.000326 381.999415 L -260.999349 269.000501 " transform="matrix(2.4,0,0,1.87125,0,0)"/>
<path style=" stroke:none;fill-rule:nonzero;fill:rgb(43.529412%,16.470588%,24.313725%);fill-opacity:1;" d="M 1857.601562 428.515625 C 1857.601562 433.683594 1852.226562 437.871094 1845.601562 437.871094 C 1838.972656 437.871094 1833.601562 433.683594 1833.601562 428.515625 C 1833.601562 423.347656 1838.972656 419.160156 1845.601562 419.160156 C 1852.226562 419.160156 1857.601562 423.347656 1857.601562 428.515625 Z M 1857.601562 428.515625 "/>
<path style=" stroke:none;fill-rule:nonzero;fill:rgb(43.529412%,16.470588%,24.313725%);fill-opacity:1;" d="M 1305.601562 503.367188 C 1305.601562 508.535156 1300.226562 512.722656 1293.601562 512.722656 C 1286.972656 512.722656 1281.601562 508.535156 1281.601562 503.367188 C 1281.601562 498.199219 1286.972656 494.011719 1293.601562 494.011719 C 1300.226562 494.011719 1305.601562 498.199219 1305.601562 503.367188 Z M 1305.601562 503.367188 "/>
<path style=" stroke:none;fill-rule:nonzero;fill:rgb(43.529412%,16.470588%,24.313725%);fill-opacity:1;" d="M 1459.199219 922.527344 C 1459.199219 927.695312 1453.828125 931.882812 1447.199219 931.882812 C 1440.574219 931.882812 1435.199219 927.695312 1435.199219 922.527344 C 1435.199219 917.359375 1440.574219 913.171875 1447.199219 913.171875 C 1453.828125 913.171875 1459.199219 917.359375 1459.199219 922.527344 Z M 1459.199219 922.527344 "/>
<path style=" stroke:none;fill-rule:nonzero;fill:rgb(43.529412%,16.470588%,24.313725%);fill-opacity:1;" d="M 1766.398438 1379.109375 C 1766.398438 1384.277344 1761.027344 1388.46875 1754.398438 1388.46875 C 1747.773438 1388.46875 1742.398438 1384.277344 1742.398438 1379.109375 C 1742.398438 1373.945312 1747.773438 1369.753906 1754.398438 1369.753906 C 1761.027344 1369.753906 1766.398438 1373.945312 1766.398438 1379.109375 Z M 1766.398438 1379.109375 "/>
<path style=" stroke:none;fill-rule:nonzero;fill:rgb(43.529412%,16.470588%,24.313725%);fill-opacity:1;" d="M 1260 1235.023438 C 1260 1240.191406 1254.628906 1244.382812 1248 1244.382812 C 1241.371094 1244.382812 1236 1240.191406 1236 1235.023438 C 1236 1229.859375 1241.371094 1225.667969 1248 1225.667969 C 1254.628906 1225.667969 1260 1229.859375 1260 1235.023438 Z M 1260 1235.023438 "/>
<path style=" stroke:none;fill-rule:nonzero;fill:rgb(43.529412%,16.470588%,24.313725%);fill-opacity:1;" d="M 753.601562 1006.734375 C 753.601562 1011.898438 748.226562 1016.089844 741.601562 1016.089844 C 734.972656 1016.089844 729.601562 1011.898438 729.601562 1006.734375 C 729.601562 1001.566406 734.972656 997.375 741.601562 997.375 C 748.226562 997.375 753.601562 1001.566406 753.601562 1006.734375 Z M 753.601562 1006.734375 "/>
<path style=" stroke:none;fill-rule:nonzero;fill:rgb(43.529412%,16.470588%,24.313725%);fill-opacity:1;" d="M 720 1429.636719 C 720 1434.800781 714.628906 1438.992188 708 1438.992188 C 701.371094 1438.992188 696 1434.800781 696 1429.636719 C 696 1424.46875 701.371094 1420.277344 708 1420.277344 C 714.628906 1420.277344 720 1424.46875 720 1429.636719 Z M 720 1429.636719 "/>
<path style=" stroke:none;fill-rule:nonzero;fill:rgb(43.529412%,16.470588%,24.313725%);fill-opacity:1;" d="M 108 1120.878906 C 108 1126.046875 102.628906 1130.234375 96 1130.234375 C 89.371094 1130.234375 84 1126.046875 84 1120.878906 C 84 1115.710938 89.371094 1111.523438 96 1111.523438 C 102.628906 1111.523438 108 1115.710938 108 1120.878906 Z M 108 1120.878906 "/>
<path style=" stroke:none;fill-rule:nonzero;fill:rgb(43.529412%,16.470588%,24.313725%);fill-opacity:1;" d="M 256.800781 714.816406 C 256.800781 719.984375 251.425781 724.171875 244.800781 724.171875 C 238.171875 724.171875 232.800781 719.984375 232.800781 714.816406 C 232.800781 709.648438 238.171875 705.460938 244.800781 705.460938 C 251.425781 705.460938 256.800781 709.648438 256.800781 714.816406 Z M 256.800781 714.816406 "/>
<path style=" stroke:none;fill-rule:nonzero;fill:rgb(43.529412%,16.470588%,24.313725%);fill-opacity:1;" d="M 316.800781 149.699219 C 316.800781 154.867188 311.425781 159.054688 304.800781 159.054688 C 298.171875 159.054688 292.800781 154.867188 292.800781 149.699219 C 292.800781 144.53125 298.171875 140.34375 304.800781 140.34375 C 311.425781 140.34375 316.800781 144.53125 316.800781 149.699219 Z M 316.800781 149.699219 "/>
<path style=" stroke:none;fill-rule:nonzero;fill:rgb(43.529412%,16.470588%,24.313725%);fill-opacity:1;" d="M 900 196.480469 C 900 201.648438 894.628906 205.835938 888 205.835938 C 881.371094 205.835938 876 201.648438 876 196.480469 C 876 191.3125 881.371094 187.125 888 187.125 C 894.628906 187.125 900 191.3125 900 196.480469 Z M 900 196.480469 "/>
<path style=" stroke:none;fill-rule:nonzero;fill:rgb(43.529412%,16.470588%,24.313725%);fill-opacity:1;" d="M 1399.199219 78.59375 C 1399.199219 83.761719 1393.828125 87.949219 1387.199219 87.949219 C 1380.574219 87.949219 1375.199219 83.761719 1375.199219 78.59375 C 1375.199219 73.425781 1380.574219 69.234375 1387.199219 69.234375 C 1393.828125 69.234375 1399.199219 73.425781 1399.199219 78.59375 Z M 1399.199219 78.59375 "/>
<path style=" stroke:none;fill-rule:nonzero;fill:rgb(43.529412%,16.470588%,24.313725%);fill-opacity:1;" d="M 580.800781 488.394531 C 580.800781 493.5625 575.425781 497.753906 568.800781 497.753906 C 562.171875 497.753906 556.800781 493.5625 556.800781 488.394531 C 556.800781 483.230469 562.171875 479.039062 568.800781 479.039062 C 575.425781 479.039062 580.800781 483.230469 580.800781 488.394531 Z M 580.800781 488.394531 "/>
<path style=" stroke:none;fill-rule:nonzero;fill:rgb(43.529412%,16.470588%,24.313725%);fill-opacity:1;" d="M 948 714.816406 C 948 719.984375 942.628906 724.171875 936 724.171875 C 929.371094 724.171875 924 719.984375 924 714.816406 C 924 709.648438 929.371094 705.460938 936 705.460938 C 942.628906 705.460938 948 709.648438 948 714.816406 Z M 948 714.816406 "/>
</g>
</svg>
