<?xml version="1.0" encoding="UTF-8"?>
<svg xmlns="http://www.w3.org/2000/svg" xmlns:xlink="http://www.w3.org/1999/xlink" width="3240px" height="1547px" viewBox="0 0 3240 1547" version="1.1">
<g id="surface1">
<rect x="0" y="0" width="3240" height="1547" style="fill:rgb(96.078431%,12.54902%,36.862745%);fill-opacity:1;stroke:none;"/>
<path style=" stroke:none;fill-rule:nonzero;fill:rgb(95.686275%,13.72549%,43.529412%);fill-opacity:1;" d="M 984.148438 1364.839844 C 762.816406 1322.683594 531.765625 1302.574219 305.167969 1327.324219 C 201.488281 1338.347656 99.226562 1359.425781 0 1391.914062 L 0 1547 L 1708.695312 1547 C 1473.996094 1482.800781 1241.324219 1415.3125 1004.804688 1368.707031 C 997.921875 1367.355469 991.035156 1366.195312 984.148438 1364.839844 Z M 984.148438 1364.839844 "/>
<path style=" stroke:none;fill-rule:nonzero;fill:rgb(95.294118%,14.901961%,49.803922%);fill-opacity:1;" d="M 3240 0 L 0 0 L 0 1391.914062 C 99.226562 1359.425781 201.488281 1338.15625 305.167969 1327.132812 C 531.765625 1302.574219 762.816406 1322.492188 984.148438 1364.648438 C 991.035156 1366 997.921875 1367.355469 1004.804688 1368.515625 C 1241.324219 1414.925781 1473.996094 1482.605469 1708.695312 1546.804688 L 3240 1546.804688 Z M 3240 0 "/>
<path style=" stroke:none;fill-rule:nonzero;fill:rgb(95.294118%,15.686275%,55.686275%);fill-opacity:1;" d="M 968.761719 1123.507812 C 975.238281 1125.054688 981.71875 1126.796875 987.996094 1128.34375 C 1385.300781 1229.863281 1775.113281 1386.5 2189.835938 1469.84375 C 2542.589844 1540.617188 2897.574219 1526.308594 3240 1450.117188 L 3240 0 L 0 0 L 0 1111.710938 C 105.90625 1077.679688 215.664062 1058.148438 326.226562 1051.960938 C 543.511719 1039.195312 760.792969 1071.683594 968.761719 1123.507812 Z M 968.761719 1123.507812 "/>
<path style=" stroke:none;fill-rule:nonzero;fill:rgb(94.901961%,16.862745%,61.568627%);fill-opacity:1;" d="M 0 0 L 0 830.351562 C 112.589844 794.769531 229.835938 777.5625 347.085938 776.789062 C 555.253906 775.242188 758.566406 820.683594 953.167969 882.175781 C 959.242188 884.109375 965.113281 886.042969 971.191406 887.976562 C 1342.980469 1007.871094 1711.734375 1170.5 2110.050781 1259.453125 C 2488.117188 1343.957031 2872.058594 1325.972656 3239.796875 1235.085938 L 3239.796875 0 Z M 0 0 "/>
<path style=" stroke:none;fill-rule:nonzero;fill:rgb(94.509804%,18.039216%,67.45098%);fill-opacity:1;" d="M 368.144531 501.613281 C 567 513.21875 756.742188 569.683594 937.777344 641.039062 C 943.449219 643.164062 948.914062 645.484375 954.585938 647.613281 C 1300.859375 786.070312 1648.550781 954.113281 2030.46875 1049.253906 C 2433.039062 1149.421875 2847.351562 1128.148438 3240 1020.632812 L 3240 0 L 0 0 L 0 547.636719 C 119.476562 509.738281 244.214844 494.460938 368.144531 501.613281 Z M 368.144531 501.613281 "/>
<path style=" stroke:none;fill-rule:nonzero;fill:rgb(95.686275%,20.784314%,64.313725%);fill-opacity:1;" d="M 3240 0 L 0 0 L 0 263.570312 C 126.15625 223.15625 258.59375 210.390625 389.203125 226.441406 C 578.746094 249.839844 754.71875 318.683594 922.386719 399.707031 C 927.652344 402.21875 932.714844 404.734375 937.980469 407.246094 C 1258.738281 564.074219 1585.371094 737.726562 1951.085938 838.859375 C 2377.351562 956.820312 2823.457031 933.613281 3240.203125 806.761719 L 3240.203125 0 Z M 3240 0 "/>
<path style=" stroke:none;fill-rule:nonzero;fill:rgb(96.862745%,23.137255%,61.176471%);fill-opacity:1;" d="M 921.171875 166.882812 C 1216.417969 342.273438 1521.988281 520.757812 1871.300781 628.46875 C 2293.71875 758.804688 2744.683594 746.039062 3163.050781 618.21875 C 3188.96875 610.292969 3214.484375 601.976562 3240.203125 593.273438 L 3240.203125 0 L 583.402344 0 C 696.800781 41.1875 803.519531 97.847656 906.796875 158.566406 C 911.65625 161.273438 916.3125 164.175781 921.171875 166.882812 Z M 921.171875 166.882812 "/>
<path style=" stroke:none;fill-rule:nonzero;fill:rgb(98.039216%,25.882353%,58.039216%);fill-opacity:1;" d="M 3240 0 L 1008.449219 0 C 1247.601562 165.914062 1501.539062 318.101562 1791.71875 418.078125 C 2180.113281 551.890625 2601.71875 562.527344 2996.59375 458.878906 C 3079.214844 437.222656 3160.824219 410.148438 3240.203125 378.242188 L 3240.203125 0 Z M 3240 0 "/>
<path style=" stroke:none;fill-rule:nonzero;fill:rgb(99.215686%,29.019608%,55.294118%);fill-opacity:1;" d="M 2829.9375 299.34375 C 2925.515625 278.847656 3019.476562 250.421875 3110.601562 214.644531 C 3154.546875 197.4375 3197.675781 178.292969 3240 157.601562 L 3240 0 L 1302.886719 0 C 1430.257812 80.636719 1565.527344 151.21875 1712.136719 207.683594 C 2066.308594 344.402344 2458.753906 379.207031 2829.9375 299.34375 Z M 2829.9375 299.34375 "/>
<path style=" stroke:none;fill-rule:nonzero;fill:rgb(100%,31.764706%,52.941176%);fill-opacity:1;" d="M 2663.484375 140.003906 C 2815.964844 115.636719 2965.003906 68.261719 3102.503906 0 L 1638.425781 0 C 1957.769531 137.296875 2318.015625 195.308594 2663.484375 140.003906 Z M 2663.484375 140.003906 "/>
</g>
</svg>
