<?xml version="1.0" encoding="UTF-8"?>
<svg xmlns="http://www.w3.org/2000/svg" xmlns:xlink="http://www.w3.org/1999/xlink" width="35px" height="33px" viewBox="0 0 35 33" version="1.1">
<g id="surface1">
<path style="fill-rule:nonzero;fill:rgb(89.411765%,46.27451%,10.588235%);fill-opacity:1;stroke-width:1;stroke-linecap:butt;stroke-linejoin:miter;stroke:rgb(89.411765%,46.27451%,10.588235%);stroke-opacity:1;stroke-miterlimit:4;" d="M 382.881918 290.877083 L 358.484731 373.395052 L 310.592286 360.313542 Z M 382.881918 290.877083 " transform="matrix(0.0866199,0,0,0.078534,0.0027857,0)"/>
<path style="fill-rule:nonzero;fill:rgb(89.411765%,46.27451%,10.588235%);fill-opacity:1;stroke-width:1;stroke-linecap:butt;stroke-linejoin:miter;stroke:rgb(89.411765%,46.27451%,10.588235%);stroke-opacity:1;stroke-miterlimit:4;" d="M 310.592286 360.313542 L 356.816162 296.995052 L 382.881918 290.877083 Z M 310.592286 360.313542 " transform="matrix(0.0866199,0,0,0.078534,0.0027857,0)"/>
<path style="fill-rule:nonzero;fill:rgb(96.470588%,52.156863%,10.588235%);fill-opacity:1;stroke-width:1;stroke-linecap:butt;stroke-linejoin:miter;stroke:rgb(96.470588%,52.156863%,10.588235%);stroke-opacity:1;stroke-miterlimit:4;" d="M 346.985133 228.702604 L 382.881918 290.877083 L 356.816162 296.995052 Z M 346.985133 228.702604 L 370.119619 212.686458 L 382.881918 290.877083 Z M 346.985133 228.702604 " transform="matrix(0.0866199,0,0,0.078534,0.0027857,0)"/>
<path style="fill-rule:nonzero;fill:rgb(46.27451%,23.921569%,8.627451%);fill-opacity:1;stroke-width:1;stroke-linecap:butt;stroke-linejoin:miter;stroke:rgb(46.27451%,23.921569%,8.627451%);stroke-opacity:1;stroke-miterlimit:4;" d="M 317.582238 181.698698 L 384.00933 154.491146 L 380.717288 169.413021 Z M 378.597754 187.319271 L 317.582238 181.698698 L 380.717288 169.413021 Z M 378.597754 187.319271 " transform="matrix(0.0866199,0,0,0.078534,0.0027857,0)"/>
<path style="fill-rule:nonzero;fill:rgb(46.27451%,23.921569%,8.627451%);fill-opacity:1;stroke-width:1;stroke-linecap:butt;stroke-linejoin:miter;stroke:rgb(46.27451%,23.921569%,8.627451%);stroke-opacity:1;stroke-miterlimit:4;" d="M 378.597754 187.319271 L 370.119619 212.686458 L 317.582238 181.698698 Z M 391.901211 160.808073 L 380.717288 169.413021 L 384.00933 154.491146 Z M 378.597754 187.319271 L 380.717288 169.413021 L 389.601291 176.824219 Z M 378.597754 187.319271 " transform="matrix(0.0866199,0,0,0.078534,0.0027857,0)"/>
<path style="fill-rule:nonzero;fill:rgb(88.627451%,46.27451%,10.588235%);fill-opacity:1;stroke-width:1;stroke-linecap:butt;stroke-linejoin:miter;stroke:rgb(88.627451%,46.27451%,10.588235%);stroke-opacity:1;stroke-miterlimit:4;" d="M 259.092124 340.21875 L 275.687623 345.491146 L 310.592286 360.313542 Z M 259.092124 340.21875 " transform="matrix(0.0866199,0,0,0.078534,0.0027857,0)"/>
<path style="fill-rule:nonzero;fill:rgb(46.27451%,23.921569%,8.627451%);fill-opacity:1;stroke-width:1;stroke-linecap:butt;stroke-linejoin:miter;stroke:rgb(46.27451%,23.921569%,8.627451%);stroke-opacity:1;stroke-miterlimit:4;" d="M 370.119619 212.686458 L 378.597754 187.319271 L 385.903381 192.890104 Z M 370.119619 212.686458 L 301.212221 190.005208 L 317.582238 181.698698 Z M 370.119619 212.686458 " transform="matrix(0.0866199,0,0,0.078534,0.0027857,0)"/>
<path style="fill-rule:nonzero;fill:rgb(46.27451%,23.921569%,8.627451%);fill-opacity:1;stroke-width:1;stroke-linecap:butt;stroke-linejoin:miter;stroke:rgb(46.27451%,23.921569%,8.627451%);stroke-opacity:1;stroke-miterlimit:4;" d="M 333.997351 103.80651 L 317.582238 181.698698 L 301.212221 190.005208 Z M 333.997351 103.80651 " transform="matrix(0.0866199,0,0,0.078534,0.0027857,0)"/>
<path style="fill-rule:nonzero;fill:rgb(46.27451%,23.921569%,8.627451%);fill-opacity:1;stroke-width:1;stroke-linecap:butt;stroke-linejoin:miter;stroke:rgb(46.27451%,23.921569%,8.627451%);stroke-opacity:1;stroke-miterlimit:4;" d="M 384.00933 154.491146 L 317.582238 181.698698 L 333.997351 103.80651 Z M 384.00933 154.491146 " transform="matrix(0.0866199,0,0,0.078534,0.0027857,0)"/>
<path style="fill-rule:nonzero;fill:rgb(46.27451%,23.921569%,8.627451%);fill-opacity:1;stroke-width:1;stroke-linecap:butt;stroke-linejoin:miter;stroke:rgb(46.27451%,23.921569%,8.627451%);stroke-opacity:1;stroke-miterlimit:4;" d="M 333.997351 103.80651 L 403.310617 95.798437 L 384.00933 154.491146 Z M 333.997351 103.80651 " transform="matrix(0.0866199,0,0,0.078534,0.0027857,0)"/>
<path style="fill-rule:nonzero;fill:rgb(96.470588%,52.156863%,10.588235%);fill-opacity:1;stroke-width:1;stroke-linecap:butt;stroke-linejoin:miter;stroke:rgb(96.470588%,52.156863%,10.588235%);stroke-opacity:1;stroke-miterlimit:4;" d="M 370.119619 212.686458 L 346.985133 228.702604 L 301.212221 190.005208 Z M 370.119619 212.686458 " transform="matrix(0.0866199,0,0,0.078534,0.0027857,0)"/>
<path style="fill-rule:nonzero;fill:rgb(46.27451%,23.921569%,8.627451%);fill-opacity:1;stroke-width:1;stroke-linecap:butt;stroke-linejoin:miter;stroke:rgb(46.27451%,23.921569%,8.627451%);stroke-opacity:1;stroke-miterlimit:4;" d="M 400.289153 39.692187 L 403.310617 95.798437 L 333.997351 103.80651 Z M 400.289153 39.692187 " transform="matrix(0.0866199,0,0,0.078534,0.0027857,0)"/>
<path style="fill-rule:nonzero;fill:rgb(88.627451%,46.27451%,10.588235%);fill-opacity:1;stroke-width:1;stroke-linecap:butt;stroke-linejoin:miter;stroke:rgb(88.627451%,46.27451%,10.588235%);stroke-opacity:1;stroke-miterlimit:4;" d="M 400.289153 39.692187 L 261.797912 140.414844 L 259.994053 72.122396 Z M 400.289153 39.692187 " transform="matrix(0.0866199,0,0,0.078534,0.0027857,0)"/>
<path style="fill-rule:nonzero;fill:rgb(96.470588%,52.156863%,10.588235%);fill-opacity:1;stroke-width:1;stroke-linecap:butt;stroke-linejoin:miter;stroke:rgb(96.470588%,52.156863%,10.588235%);stroke-opacity:1;stroke-miterlimit:4;" d="M 156.993729 63.915365 L 259.994053 72.122396 L 261.797912 140.414844 Z M 156.993729 63.915365 " transform="matrix(0.0866199,0,0,0.078534,0.0027857,0)"/>
<path style="fill-rule:nonzero;fill:rgb(46.27451%,23.921569%,8.627451%);fill-opacity:1;stroke-width:1;stroke-linecap:butt;stroke-linejoin:miter;stroke:rgb(46.27451%,23.921569%,8.627451%);stroke-opacity:1;stroke-miterlimit:4;" d="M 301.212221 190.005208 L 261.797912 140.414844 L 333.997351 103.80651 Z M 301.212221 190.005208 " transform="matrix(0.0866199,0,0,0.078534,0.0027857,0)"/>
<path style="fill-rule:nonzero;fill:rgb(89.411765%,46.27451%,10.588235%);fill-opacity:1;stroke-width:1;stroke-linecap:butt;stroke-linejoin:miter;stroke:rgb(89.411765%,46.27451%,10.588235%);stroke-opacity:1;stroke-miterlimit:4;" d="M 301.212221 190.005208 L 346.985133 228.702604 L 282.677575 235.815365 Z M 301.212221 190.005208 " transform="matrix(0.0866199,0,0,0.078534,0.0027857,0)"/>
<path style="fill-rule:nonzero;fill:rgb(89.411765%,46.27451%,10.588235%);fill-opacity:1;stroke-width:1;stroke-linecap:butt;stroke-linejoin:miter;stroke:rgb(89.411765%,46.27451%,10.588235%);stroke-opacity:1;stroke-miterlimit:4;" d="M 282.677575 235.815365 L 261.797912 140.414844 L 301.212221 190.005208 Z M 282.677575 235.815365 " transform="matrix(0.0866199,0,0,0.078534,0.0027857,0)"/>
<path style="fill-rule:nonzero;fill:rgb(46.27451%,23.921569%,8.627451%);fill-opacity:1;stroke-width:1;stroke-linecap:butt;stroke-linejoin:miter;stroke:rgb(46.27451%,23.921569%,8.627451%);stroke-opacity:1;stroke-miterlimit:4;" d="M 333.997351 103.80651 L 261.797912 140.414844 L 400.289153 39.692187 Z M 333.997351 103.80651 " transform="matrix(0.0866199,0,0,0.078534,0.0027857,0)"/>
<path style="fill-rule:nonzero;fill:rgb(75.294118%,67.843137%,61.960784%);fill-opacity:1;stroke-width:1;stroke-linecap:butt;stroke-linejoin:miter;stroke:rgb(75.294118%,67.843137%,61.960784%);stroke-opacity:1;stroke-miterlimit:4;" d="M 157.895658 358.721875 L 190.590595 392.79349 L 146.080384 352.305469 Z M 157.895658 358.721875 " transform="matrix(0.0866199,0,0,0.078534,0.0027857,0)"/>
<path style="fill-rule:nonzero;fill:rgb(80.392157%,38.039216%,8.627451%);fill-opacity:1;stroke-width:1;stroke-linecap:butt;stroke-linejoin:miter;stroke:rgb(80.392157%,38.039216%,8.627451%);stroke-opacity:1;stroke-miterlimit:4;" d="M 310.592286 360.313542 L 326.10547 301.421875 L 356.816162 296.995052 Z M 310.592286 360.313542 " transform="matrix(0.0866199,0,0,0.078534,0.0027857,0)"/>
<path style="fill-rule:nonzero;fill:rgb(88.627451%,46.27451%,10.588235%);fill-opacity:1;stroke-width:1;stroke-linecap:butt;stroke-linejoin:miter;stroke:rgb(88.627451%,46.27451%,10.588235%);stroke-opacity:1;stroke-miterlimit:4;" d="M 25.312053 194.58125 L 81.908116 135.092708 L 32.61768 187.518229 Z M 25.312053 194.58125 " transform="matrix(0.0866199,0,0,0.078534,0.0027857,0)"/>
<path style="fill-rule:nonzero;fill:rgb(96.470588%,52.156863%,10.588235%);fill-opacity:1;stroke-width:1;stroke-linecap:butt;stroke-linejoin:miter;stroke:rgb(96.470588%,52.156863%,10.588235%);stroke-opacity:1;stroke-miterlimit:4;" d="M 356.816162 296.995052 L 326.10547 301.421875 L 346.985133 228.702604 Z M 261.797912 140.414844 L 206.690032 138.624219 L 156.993729 63.915365 Z M 261.797912 140.414844 " transform="matrix(0.0866199,0,0,0.078534,0.0027857,0)"/>
<path style="fill-rule:nonzero;fill:rgb(89.411765%,45.882353%,12.156863%);fill-opacity:1;stroke-width:1;stroke-linecap:butt;stroke-linejoin:miter;stroke:rgb(89.411765%,45.882353%,12.156863%);stroke-opacity:1;stroke-miterlimit:4;" d="M 346.985133 228.702604 L 326.10547 301.421875 L 324.391804 265.907812 Z M 346.985133 228.702604 " transform="matrix(0.0866199,0,0,0.078534,0.0027857,0)"/>
<path style="fill-rule:nonzero;fill:rgb(80.392157%,38.039216%,8.627451%);fill-opacity:1;stroke-width:1;stroke-linecap:butt;stroke-linejoin:miter;stroke:rgb(80.392157%,38.039216%,8.627451%);stroke-opacity:1;stroke-miterlimit:4;" d="M 282.677575 235.815365 L 346.985133 228.702604 L 324.391804 265.907812 Z M 282.677575 235.815365 " transform="matrix(0.0866199,0,0,0.078534,0.0027857,0)"/>
<path style="fill-rule:nonzero;fill:rgb(96.470588%,52.156863%,10.588235%);fill-opacity:1;stroke-width:1;stroke-linecap:butt;stroke-linejoin:miter;stroke:rgb(96.470588%,52.156863%,10.588235%);stroke-opacity:1;stroke-miterlimit:4;" d="M 206.690032 138.624219 L 261.797912 140.414844 L 282.677575 235.815365 Z M 206.690032 138.624219 " transform="matrix(0.0866199,0,0,0.078534,0.0027857,0)"/>
<path style="fill-rule:nonzero;fill:rgb(89.411765%,46.27451%,10.588235%);fill-opacity:1;stroke-width:1;stroke-linecap:butt;stroke-linejoin:miter;stroke:rgb(89.411765%,46.27451%,10.588235%);stroke-opacity:1;stroke-miterlimit:4;" d="M 206.690032 138.624219 L 58.00699 0.994792 L 156.993729 63.915365 Z M 156.903536 379.6125 L 27.702166 419.603125 L 1.906988 321.11875 Z M 156.903536 379.6125 " transform="matrix(0.0866199,0,0,0.078534,0.0027857,0)"/>
<path style="fill-rule:nonzero;fill:rgb(46.27451%,23.921569%,8.627451%);fill-opacity:1;stroke-width:1;stroke-linecap:butt;stroke-linejoin:miter;stroke:rgb(46.27451%,23.921569%,8.627451%);stroke-opacity:1;stroke-miterlimit:4;" d="M 44.47805 219.202344 L 93.317521 180.902865 L 134.220014 190.403125 Z M 44.47805 219.202344 " transform="matrix(0.0866199,0,0,0.078534,0.0027857,0)"/>
<path style="fill-rule:nonzero;fill:rgb(46.27451%,23.921569%,8.627451%);fill-opacity:1;stroke-width:1;stroke-linecap:butt;stroke-linejoin:miter;stroke:rgb(46.27451%,23.921569%,8.627451%);stroke-opacity:1;stroke-miterlimit:4;" d="M 134.220014 190.403125 L 93.317521 180.902865 L 115.189306 90.476302 Z M 134.220014 190.403125 " transform="matrix(0.0866199,0,0,0.078534,0.0027857,0)"/>
<path style="fill-rule:nonzero;fill:rgb(46.27451%,23.921569%,8.627451%);fill-opacity:1;stroke-width:1;stroke-linecap:butt;stroke-linejoin:miter;stroke:rgb(46.27451%,23.921569%,8.627451%);stroke-opacity:1;stroke-miterlimit:4;" d="M 32.61768 187.518229 L 93.317521 180.902865 L 44.47805 219.202344 Z M 32.61768 187.518229 " transform="matrix(0.0866199,0,0,0.078534,0.0027857,0)"/>
<path style="fill-rule:nonzero;fill:rgb(80.392157%,38.039216%,8.627451%);fill-opacity:1;stroke-width:1;stroke-linecap:butt;stroke-linejoin:miter;stroke:rgb(80.392157%,38.039216%,8.627451%);stroke-opacity:1;stroke-miterlimit:4;" d="M 324.391804 265.907812 L 299.182881 253.224219 L 282.677575 235.815365 Z M 324.391804 265.907812 " transform="matrix(0.0866199,0,0,0.078534,0.0027857,0)"/>
<path style="fill-rule:nonzero;fill:rgb(46.27451%,23.921569%,8.627451%);fill-opacity:1;stroke-width:1;stroke-linecap:butt;stroke-linejoin:miter;stroke:rgb(46.27451%,23.921569%,8.627451%);stroke-opacity:1;stroke-miterlimit:4;" d="M 32.61768 187.518229 L 28.28842 164.78724 L 93.317521 180.902865 Z M 32.61768 187.518229 " transform="matrix(0.0866199,0,0,0.078534,0.0027857,0)"/>
<path style="fill-rule:nonzero;fill:rgb(13.72549%,20.392157%,27.843137%);fill-opacity:1;stroke-width:1;stroke-linecap:butt;stroke-linejoin:miter;stroke:rgb(13.72549%,20.392157%,27.843137%);stroke-opacity:1;stroke-miterlimit:4;" d="M 293.996787 281.824479 L 299.182881 253.224219 L 324.391804 265.907812 Z M 293.996787 281.824479 " transform="matrix(0.0866199,0,0,0.078534,0.0027857,0)"/>
<path style="fill-rule:nonzero;fill:rgb(96.470588%,52.156863%,10.588235%);fill-opacity:1;stroke-width:1;stroke-linecap:butt;stroke-linejoin:miter;stroke:rgb(96.470588%,52.156863%,10.588235%);stroke-opacity:1;stroke-miterlimit:4;" d="M 326.10547 301.421875 L 293.996787 281.824479 L 324.391804 265.907812 Z M 326.10547 301.421875 " transform="matrix(0.0866199,0,0,0.078534,0.0027857,0)"/>
<path style="fill-rule:nonzero;fill:rgb(46.27451%,23.921569%,8.627451%);fill-opacity:1;stroke-width:1;stroke-linecap:butt;stroke-linejoin:miter;stroke:rgb(46.27451%,23.921569%,8.627451%);stroke-opacity:1;stroke-miterlimit:4;" d="M 93.317521 180.902865 L 28.28842 164.78724 L 23.012133 145.68724 Z M 115.189306 90.476302 L 93.317521 180.902865 L 23.012133 145.68724 Z M 115.189306 90.476302 L 206.690032 138.624219 L 134.220014 190.403125 Z M 115.189306 90.476302 " transform="matrix(0.0866199,0,0,0.078534,0.0027857,0)"/>
<path style="fill-rule:nonzero;fill:rgb(89.411765%,46.27451%,10.588235%);fill-opacity:1;stroke-width:1;stroke-linecap:butt;stroke-linejoin:miter;stroke:rgb(89.411765%,46.27451%,10.588235%);stroke-opacity:1;stroke-miterlimit:4;" d="M 134.220014 190.403125 L 206.690032 138.624219 L 238.979101 237.307552 Z M 238.979101 237.307552 L 138.819854 235.21849 L 134.220014 190.403125 Z M 238.979101 237.307552 " transform="matrix(0.0866199,0,0,0.078534,0.0027857,0)"/>
<path style="fill-rule:nonzero;fill:rgb(96.470588%,52.156863%,10.588235%);fill-opacity:1;stroke-width:1;stroke-linecap:butt;stroke-linejoin:miter;stroke:rgb(96.470588%,52.156863%,10.588235%);stroke-opacity:1;stroke-miterlimit:4;" d="M 44.47805 219.202344 L 134.220014 190.403125 L 138.819854 235.21849 Z M 282.677575 235.815365 L 238.979101 237.307552 L 206.690032 138.624219 Z M 282.677575 235.815365 " transform="matrix(0.0866199,0,0,0.078534,0.0027857,0)"/>
<path style="fill-rule:nonzero;fill:rgb(80.392157%,38.039216%,8.627451%);fill-opacity:1;stroke-width:1;stroke-linecap:butt;stroke-linejoin:miter;stroke:rgb(80.392157%,38.039216%,8.627451%);stroke-opacity:1;stroke-miterlimit:4;" d="M 299.182881 253.224219 L 293.996787 281.824479 L 282.677575 235.815365 Z M 299.182881 253.224219 " transform="matrix(0.0866199,0,0,0.078534,0.0027857,0)"/>
<path style="fill-rule:nonzero;fill:rgb(46.27451%,23.921569%,8.627451%);fill-opacity:1;stroke-width:1;stroke-linecap:butt;stroke-linejoin:miter;stroke:rgb(46.27451%,23.921569%,8.627451%);stroke-opacity:1;stroke-miterlimit:4;" d="M 58.00699 0.994792 L 206.690032 138.624219 L 115.189306 90.476302 Z M 58.00699 0.994792 " transform="matrix(0.0866199,0,0,0.078534,0.0027857,0)"/>
<path style="fill-rule:nonzero;fill:rgb(89.411765%,46.27451%,10.588235%);fill-opacity:1;stroke-width:1;stroke-linecap:butt;stroke-linejoin:miter;stroke:rgb(89.411765%,46.27451%,10.588235%);stroke-opacity:1;stroke-miterlimit:4;" d="M 1.906988 321.11875 L 127.320255 315.896094 L 156.903536 379.6125 Z M 1.906988 321.11875 " transform="matrix(0.0866199,0,0,0.078534,0.0027857,0)"/>
<path style="fill-rule:nonzero;fill:rgb(80.392157%,38.039216%,8.627451%);fill-opacity:1;stroke-width:1;stroke-linecap:butt;stroke-linejoin:miter;stroke:rgb(80.392157%,38.039216%,8.627451%);stroke-opacity:1;stroke-miterlimit:4;" d="M 156.903536 379.6125 L 127.320255 315.896094 L 188.922025 312.911719 Z M 156.903536 379.6125 " transform="matrix(0.0866199,0,0,0.078534,0.0027857,0)"/>
<path style="fill-rule:nonzero;fill:rgb(96.470588%,52.156863%,10.588235%);fill-opacity:1;stroke-width:1;stroke-linecap:butt;stroke-linejoin:miter;stroke:rgb(96.470588%,52.156863%,10.588235%);stroke-opacity:1;stroke-miterlimit:4;" d="M 293.996787 281.824479 L 326.10547 301.421875 L 343.783284 343.103646 Z M 138.819854 235.21849 L 1.906988 321.11875 L 44.47805 219.202344 Z M 127.320255 315.896094 L 1.906988 321.11875 L 138.819854 235.21849 Z M 282.677575 235.815365 L 290.885131 265.609375 L 251.290435 267.897396 Z M 251.290435 267.897396 L 238.979101 237.307552 L 282.677575 235.815365 Z M 251.290435 267.897396 " transform="matrix(0.0866199,0,0,0.078534,0.0027857,0)"/>
<path style="fill-rule:nonzero;fill:rgb(75.294118%,67.843137%,61.960784%);fill-opacity:1;stroke-width:1;stroke-linecap:butt;stroke-linejoin:miter;stroke:rgb(75.294118%,67.843137%,61.960784%);stroke-opacity:1;stroke-miterlimit:4;" d="M 190.590595 392.79349 L 156.903536 379.6125 L 274.109246 399.309375 Z M 190.590595 392.79349 " transform="matrix(0.0866199,0,0,0.078534,0.0027857,0)"/>
<path style="fill-rule:nonzero;fill:rgb(46.27451%,23.921569%,8.627451%);fill-opacity:1;stroke-width:1;stroke-linecap:butt;stroke-linejoin:miter;stroke:rgb(46.27451%,23.921569%,8.627451%);stroke-opacity:1;stroke-miterlimit:4;" d="M 44.47805 219.202344 L 25.312053 194.58125 L 32.61768 187.518229 Z M 44.47805 219.202344 " transform="matrix(0.0866199,0,0,0.078534,0.0027857,0)"/>
<path style="fill-rule:nonzero;fill:rgb(84.313725%,75.686275%,70.196078%);fill-opacity:1;stroke-width:1;stroke-linecap:butt;stroke-linejoin:miter;stroke:rgb(84.313725%,75.686275%,70.196078%);stroke-opacity:1;stroke-miterlimit:4;" d="M 287.412703 384.685937 L 274.109246 399.309375 L 156.903536 379.6125 Z M 287.412703 384.685937 " transform="matrix(0.0866199,0,0,0.078534,0.0027857,0)"/>
<path style="fill-rule:nonzero;fill:rgb(89.411765%,46.27451%,10.588235%);fill-opacity:1;stroke-width:1;stroke-linecap:butt;stroke-linejoin:miter;stroke:rgb(89.411765%,46.27451%,10.588235%);stroke-opacity:1;stroke-miterlimit:4;" d="M 293.681112 348.923177 L 156.903536 379.6125 L 188.922025 312.911719 Z M 293.681112 348.923177 " transform="matrix(0.0866199,0,0,0.078534,0.0027857,0)"/>
<path style="fill-rule:nonzero;fill:rgb(84.313725%,75.686275%,70.196078%);fill-opacity:1;stroke-width:1;stroke-linecap:butt;stroke-linejoin:miter;stroke:rgb(84.313725%,75.686275%,70.196078%);stroke-opacity:1;stroke-miterlimit:4;" d="M 156.903536 379.6125 L 293.681112 348.923177 L 287.412703 384.685937 Z M 156.903536 379.6125 " transform="matrix(0.0866199,0,0,0.078534,0.0027857,0)"/>
<path style="fill-rule:nonzero;fill:rgb(46.27451%,23.921569%,8.627451%);fill-opacity:1;stroke-width:1;stroke-linecap:butt;stroke-linejoin:miter;stroke:rgb(46.27451%,23.921569%,8.627451%);stroke-opacity:1;stroke-miterlimit:4;" d="M 23.012133 145.68724 L 18.502487 68.789844 L 115.189306 90.476302 Z M 32.61768 187.518229 L 19.314223 173.989062 L 28.28842 164.78724 Z M 32.61768 187.518229 " transform="matrix(0.0866199,0,0,0.078534,0.0027857,0)"/>
<path style="fill-rule:nonzero;fill:rgb(80.392157%,38.039216%,8.627451%);fill-opacity:1;stroke-width:1;stroke-linecap:butt;stroke-linejoin:miter;stroke:rgb(80.392157%,38.039216%,8.627451%);stroke-opacity:1;stroke-miterlimit:4;" d="M 216.611254 257.103906 L 238.979101 237.307552 L 235.822348 285.704167 Z M 216.611254 257.103906 " transform="matrix(0.0866199,0,0,0.078534,0.0027857,0)"/>
<path style="fill-rule:nonzero;fill:rgb(80.392157%,38.039216%,8.627451%);fill-opacity:1;stroke-width:1;stroke-linecap:butt;stroke-linejoin:miter;stroke:rgb(80.392157%,38.039216%,8.627451%);stroke-opacity:1;stroke-miterlimit:4;" d="M 238.979101 237.307552 L 216.611254 257.103906 L 184.006511 274.015365 Z M 238.979101 237.307552 " transform="matrix(0.0866199,0,0,0.078534,0.0027857,0)"/>
<path style="fill-rule:nonzero;fill:rgb(96.470588%,52.156863%,10.588235%);fill-opacity:1;stroke-width:1;stroke-linecap:butt;stroke-linejoin:miter;stroke:rgb(96.470588%,52.156863%,10.588235%);stroke-opacity:1;stroke-miterlimit:4;" d="M 343.783284 343.103646 L 337.695261 338.577344 L 293.996787 281.824479 Z M 343.783284 343.103646 " transform="matrix(0.0866199,0,0,0.078534,0.0027857,0)"/>
<path style="fill-rule:nonzero;fill:rgb(80.392157%,38.039216%,8.627451%);fill-opacity:1;stroke-width:1;stroke-linecap:butt;stroke-linejoin:miter;stroke:rgb(80.392157%,38.039216%,8.627451%);stroke-opacity:1;stroke-miterlimit:4;" d="M 184.006511 274.015365 L 138.819854 235.21849 L 238.979101 237.307552 Z M 184.006511 274.015365 " transform="matrix(0.0866199,0,0,0.078534,0.0027857,0)"/>
<path style="fill-rule:nonzero;fill:rgb(89.411765%,45.882353%,12.156863%);fill-opacity:1;stroke-width:1;stroke-linecap:butt;stroke-linejoin:miter;stroke:rgb(89.411765%,45.882353%,12.156863%);stroke-opacity:1;stroke-miterlimit:4;" d="M 235.822348 285.704167 L 238.979101 237.307552 L 251.290435 267.897396 Z M 235.822348 285.704167 " transform="matrix(0.0866199,0,0,0.078534,0.0027857,0)"/>
<path style="fill-rule:nonzero;fill:rgb(46.27451%,23.921569%,8.627451%);fill-opacity:1;stroke-width:1;stroke-linecap:butt;stroke-linejoin:miter;stroke:rgb(46.27451%,23.921569%,8.627451%);stroke-opacity:1;stroke-miterlimit:4;" d="M 14.89477 153.297396 L 23.012133 145.68724 L 28.28842 164.78724 Z M 14.89477 153.297396 " transform="matrix(0.0866199,0,0,0.078534,0.0027857,0)"/>
<path style="fill-rule:nonzero;fill:rgb(13.72549%,20.392157%,27.843137%);fill-opacity:1;stroke-width:1;stroke-linecap:butt;stroke-linejoin:miter;stroke:rgb(13.72549%,20.392157%,27.843137%);stroke-opacity:1;stroke-miterlimit:4;" d="M 235.822348 285.704167 L 184.006511 274.015365 L 216.611254 257.103906 Z M 235.822348 285.704167 " transform="matrix(0.0866199,0,0,0.078534,0.0027857,0)"/>
<path style="fill-rule:nonzero;fill:rgb(46.27451%,23.921569%,8.627451%);fill-opacity:1;stroke-width:1;stroke-linecap:butt;stroke-linejoin:miter;stroke:rgb(46.27451%,23.921569%,8.627451%);stroke-opacity:1;stroke-miterlimit:4;" d="M 115.189306 90.476302 L 18.502487 68.789844 L 58.00699 0.994792 Z M 115.189306 90.476302 " transform="matrix(0.0866199,0,0,0.078534,0.0027857,0)"/>
<path style="fill-rule:nonzero;fill:rgb(75.294118%,67.843137%,61.960784%);fill-opacity:1;stroke-width:1;stroke-linecap:butt;stroke-linejoin:miter;stroke:rgb(75.294118%,67.843137%,61.960784%);stroke-opacity:1;stroke-miterlimit:4;" d="M 274.109246 399.309375 L 279.611015 414.28099 L 190.590595 392.79349 Z M 274.109246 399.309375 " transform="matrix(0.0866199,0,0,0.078534,0.0027857,0)"/>
<path style="fill-rule:nonzero;fill:rgb(96.470588%,52.156863%,10.588235%);fill-opacity:1;stroke-width:1;stroke-linecap:butt;stroke-linejoin:miter;stroke:rgb(96.470588%,52.156863%,10.588235%);stroke-opacity:1;stroke-miterlimit:4;" d="M 188.922025 312.911719 L 184.006511 274.015365 L 235.822348 285.704167 Z M 188.922025 312.911719 " transform="matrix(0.0866199,0,0,0.078534,0.0027857,0)"/>
<path style="fill-rule:nonzero;fill:rgb(89.411765%,45.882353%,12.156863%);fill-opacity:1;stroke-width:1;stroke-linecap:butt;stroke-linejoin:miter;stroke:rgb(89.411765%,45.882353%,12.156863%);stroke-opacity:1;stroke-miterlimit:4;" d="M 138.819854 235.21849 L 184.006511 274.015365 L 188.922025 312.911719 Z M 138.819854 235.21849 " transform="matrix(0.0866199,0,0,0.078534,0.0027857,0)"/>
<path style="fill-rule:nonzero;fill:rgb(96.470588%,52.156863%,10.588235%);fill-opacity:1;stroke-width:1;stroke-linecap:butt;stroke-linejoin:miter;stroke:rgb(96.470588%,52.156863%,10.588235%);stroke-opacity:1;stroke-miterlimit:4;" d="M 251.290435 267.897396 L 290.885131 265.609375 L 337.695261 338.577344 Z M 138.819854 235.21849 L 188.922025 312.911719 L 127.320255 315.896094 Z M 138.819854 235.21849 " transform="matrix(0.0866199,0,0,0.078534,0.0027857,0)"/>
<path style="fill-rule:nonzero;fill:rgb(89.411765%,45.882353%,12.156863%);fill-opacity:1;stroke-width:1;stroke-linecap:butt;stroke-linejoin:miter;stroke:rgb(89.411765%,45.882353%,12.156863%);stroke-opacity:1;stroke-miterlimit:4;" d="M 251.290435 267.897396 L 300.490678 342.805208 L 235.822348 285.704167 Z M 251.290435 267.897396 " transform="matrix(0.0866199,0,0,0.078534,0.0027857,0)"/>
<path style="fill-rule:nonzero;fill:rgb(96.470588%,52.156863%,10.588235%);fill-opacity:1;stroke-width:1;stroke-linecap:butt;stroke-linejoin:miter;stroke:rgb(96.470588%,52.156863%,10.588235%);stroke-opacity:1;stroke-miterlimit:4;" d="M 235.822348 285.704167 L 300.490678 342.805208 L 293.681112 348.923177 Z M 235.822348 285.704167 " transform="matrix(0.0866199,0,0,0.078534,0.0027857,0)"/>
<path style="fill-rule:nonzero;fill:rgb(96.470588%,52.156863%,10.588235%);fill-opacity:1;stroke-width:1;stroke-linecap:butt;stroke-linejoin:miter;stroke:rgb(96.470588%,52.156863%,10.588235%);stroke-opacity:1;stroke-miterlimit:4;" d="M 293.681112 348.923177 L 188.922025 312.911719 L 235.822348 285.704167 Z M 337.695261 338.577344 L 300.490678 342.805208 L 251.290435 267.897396 Z M 337.695261 338.577344 " transform="matrix(0.0866199,0,0,0.078534,0.0027857,0)"/>
<path style="fill-rule:nonzero;fill:rgb(75.294118%,67.843137%,61.960784%);fill-opacity:1;stroke-width:1;stroke-linecap:butt;stroke-linejoin:miter;stroke:rgb(75.294118%,67.843137%,61.960784%);stroke-opacity:1;stroke-miterlimit:4;" d="M 347.481194 373.792969 L 331.517045 405.92474 L 279.611015 414.28099 Z M 279.611015 414.28099 L 274.109246 399.309375 L 287.412703 384.685937 Z M 279.611015 414.28099 " transform="matrix(0.0866199,0,0,0.078534,0.0027857,0)"/>
<path style="fill-rule:nonzero;fill:rgb(75.294118%,67.843137%,61.960784%);fill-opacity:1;stroke-width:1;stroke-linecap:butt;stroke-linejoin:miter;stroke:rgb(75.294118%,67.843137%,61.960784%);stroke-opacity:1;stroke-miterlimit:4;" d="M 287.412703 384.685937 L 297.198636 380.80625 L 279.611015 414.28099 Z M 279.611015 414.28099 L 297.198636 380.80625 L 347.481194 373.792969 Z M 279.611015 414.28099 " transform="matrix(0.0866199,0,0,0.078534,0.0027857,0)"/>
<path style="fill-rule:nonzero;fill:rgb(8.627451%,8.627451%,8.627451%);fill-opacity:1;stroke-width:1;stroke-linecap:butt;stroke-linejoin:miter;stroke:rgb(8.627451%,8.627451%,8.627451%);stroke-opacity:1;stroke-miterlimit:4;" d="M 337.695261 338.577344 L 350.006596 346.088021 L 312.621627 350.614323 Z M 337.695261 338.577344 " transform="matrix(0.0866199,0,0,0.078534,0.0027857,0)"/>
<path style="fill-rule:nonzero;fill:rgb(8.627451%,8.627451%,8.627451%);fill-opacity:1;stroke-width:1;stroke-linecap:butt;stroke-linejoin:miter;stroke:rgb(8.627451%,8.627451%,8.627451%);stroke-opacity:1;stroke-miterlimit:4;" d="M 312.621627 350.614323 L 300.490678 342.805208 L 337.695261 338.577344 Z M 308.292366 356.483594 L 353.794699 351.01224 L 347.481194 373.792969 Z M 308.292366 356.483594 " transform="matrix(0.0866199,0,0,0.078534,0.0027857,0)"/>
<path style="fill-rule:nonzero;fill:rgb(8.627451%,8.627451%,8.627451%);fill-opacity:1;stroke-width:1;stroke-linecap:butt;stroke-linejoin:miter;stroke:rgb(8.627451%,8.627451%,8.627451%);stroke-opacity:1;stroke-miterlimit:4;" d="M 347.481194 373.792969 L 297.198636 380.80625 L 308.292366 356.483594 Z M 297.198636 380.80625 L 287.412703 384.685937 L 293.681112 348.923177 Z M 293.681112 348.923177 L 300.490678 342.805208 L 312.621627 350.614323 Z M 350.006596 346.088021 L 353.794699 351.01224 L 308.292366 356.483594 Z M 350.006596 346.088021 " transform="matrix(0.0866199,0,0,0.078534,0.0027857,0)"/>
<path style="fill-rule:nonzero;fill:rgb(8.627451%,8.627451%,8.627451%);fill-opacity:1;stroke-width:1;stroke-linecap:butt;stroke-linejoin:miter;stroke:rgb(8.627451%,8.627451%,8.627451%);stroke-opacity:1;stroke-miterlimit:4;" d="M 308.292366 356.483594 L 312.621627 350.614323 L 350.006596 346.088021 Z M 293.681112 348.923177 L 308.292366 356.483594 L 297.198636 380.80625 Z M 293.681112 348.923177 " transform="matrix(0.0866199,0,0,0.078534,0.0027857,0)"/>
<path style="fill-rule:nonzero;fill:rgb(8.627451%,8.627451%,8.627451%);fill-opacity:1;stroke-width:1;stroke-linecap:butt;stroke-linejoin:miter;stroke:rgb(8.627451%,8.627451%,8.627451%);stroke-opacity:1;stroke-miterlimit:4;" d="M 312.621627 350.614323 L 308.292366 356.483594 L 293.681112 348.923177 Z M 312.621627 350.614323 " transform="matrix(0.0866199,0,0,0.078534,0.0027857,0)"/>
</g>
</svg>
