<?xml version="1.0" encoding="UTF-8"?>
<svg xmlns="http://www.w3.org/2000/svg" xmlns:xlink="http://www.w3.org/1999/xlink" width="119px" height="119px" viewBox="0 0 119 119" version="1.1">
<g id="surface1">
<path style=" stroke:none;fill-rule:nonzero;fill:rgb(0%,0%,0%);fill-opacity:1;" d="M 59.433594 91.519531 C 57.832031 91.519531 56.230469 91.105469 54.804688 90.28125 L 35.035156 78.867188 C 32.175781 77.21875 30.402344 74.148438 30.402344 70.847656 L 30.402344 48.019531 C 30.402344 44.722656 32.175781 41.648438 35.035156 40 L 54.804688 28.582031 C 57.660156 26.933594 61.207031 26.933594 64.0625 28.582031 L 83.835938 40 C 86.691406 41.648438 88.464844 44.71875 88.464844 48.019531 L 88.464844 70.847656 C 88.464844 74.144531 86.691406 77.21875 83.835938 78.867188 L 64.0625 90.28125 C 62.636719 91.105469 61.035156 91.519531 59.433594 91.519531 Z M 59.433594 29.960938 C 58.285156 29.960938 57.132812 30.257812 56.109375 30.847656 L 36.339844 42.261719 C 34.289062 43.445312 33.015625 45.652344 33.015625 48.019531 L 33.015625 70.847656 C 33.015625 73.214844 34.289062 75.421875 36.339844 76.605469 L 56.109375 88.019531 C 58.160156 89.203125 60.707031 89.203125 62.757812 88.019531 L 82.527344 76.605469 C 84.578125 75.421875 85.851562 73.214844 85.851562 70.847656 L 85.851562 48.019531 C 85.851562 45.652344 84.578125 43.445312 82.527344 42.261719 L 62.757812 30.847656 C 61.730469 30.253906 60.582031 29.960938 59.433594 29.960938 Z M 59.433594 29.960938 "/>
<path style=" stroke:none;fill-rule:nonzero;fill:rgb(0%,0%,0%);fill-opacity:1;" d="M 49.886719 69.535156 C 49.445312 69.535156 49.019531 69.308594 48.777344 68.917969 L 40.273438 55.21875 L 40.273438 68.226562 C 40.273438 68.949219 39.6875 69.53125 38.96875 69.53125 C 38.246094 69.53125 37.660156 68.949219 37.660156 68.226562 L 37.660156 50.636719 C 37.660156 50.054688 38.046875 49.542969 38.609375 49.382812 C 39.171875 49.21875 39.769531 49.453125 40.078125 49.949219 L 48.578125 63.648438 L 48.578125 50.636719 C 48.578125 49.917969 49.164062 49.332031 49.886719 49.332031 C 50.605469 49.332031 51.191406 49.917969 51.191406 50.636719 L 51.191406 68.230469 C 51.191406 68.8125 50.804688 69.324219 50.246094 69.484375 C 50.125 69.519531 50.007812 69.535156 49.886719 69.535156 Z M 49.886719 69.535156 "/>
<path style=" stroke:none;fill-rule:nonzero;fill:rgb(0%,0%,0%);fill-opacity:1;" d="M 56.707031 69.535156 C 55.988281 69.535156 55.402344 68.949219 55.402344 68.226562 L 55.402344 50.636719 C 55.402344 49.917969 55.988281 49.332031 56.707031 49.332031 L 64.507812 49.332031 C 65.230469 49.332031 65.8125 49.917969 65.8125 50.636719 C 65.8125 51.359375 65.230469 51.945312 64.507812 51.945312 L 58.015625 51.945312 L 58.015625 68.230469 C 58.015625 68.949219 57.429688 69.535156 56.707031 69.535156 Z M 56.707031 69.535156 "/>
<path style=" stroke:none;fill-rule:nonzero;fill:rgb(0%,0%,0%);fill-opacity:1;" d="M 62.90625 60.738281 L 56.707031 60.738281 C 55.984375 60.738281 55.402344 60.15625 55.402344 59.433594 C 55.402344 58.710938 55.984375 58.128906 56.707031 58.128906 L 62.90625 58.128906 C 63.628906 58.128906 64.214844 58.710938 64.214844 59.433594 C 64.214844 60.15625 63.628906 60.738281 62.90625 60.738281 Z M 62.90625 60.738281 "/>
<path style=" stroke:none;fill-rule:nonzero;fill:rgb(0%,0%,0%);fill-opacity:1;" d="M 79.898438 51.945312 L 69.902344 51.945312 C 69.179688 51.945312 68.59375 51.359375 68.59375 50.636719 C 68.59375 49.917969 69.179688 49.332031 69.902344 49.332031 L 79.898438 49.332031 C 80.621094 49.332031 81.203125 49.917969 81.203125 50.636719 C 81.203125 51.359375 80.621094 51.945312 79.898438 51.945312 Z M 79.898438 51.945312 "/>
<path style=" stroke:none;fill-rule:nonzero;fill:rgb(0%,0%,0%);fill-opacity:1;" d="M 74.898438 69.535156 C 74.179688 69.535156 73.59375 68.949219 73.59375 68.226562 L 73.59375 50.636719 C 73.59375 49.917969 74.179688 49.332031 74.898438 49.332031 C 75.621094 49.332031 76.207031 49.917969 76.207031 50.636719 L 76.207031 68.230469 C 76.207031 68.949219 75.621094 69.535156 74.898438 69.535156 Z M 74.898438 69.535156 "/>
<path style=" stroke:none;fill-rule:nonzero;fill:rgb(0%,0%,0%);fill-opacity:1;" d="M 59.433594 14.78125 C 55.539062 14.78125 52.371094 11.613281 52.371094 7.71875 C 52.371094 3.824219 55.539062 0.652344 59.433594 0.652344 C 63.328125 0.652344 66.496094 3.824219 66.496094 7.71875 C 66.496094 11.613281 63.328125 14.78125 59.433594 14.78125 Z M 59.433594 3.265625 C 56.980469 3.265625 54.980469 5.261719 54.980469 7.71875 C 54.980469 10.171875 56.980469 12.167969 59.433594 12.167969 C 61.886719 12.167969 63.886719 10.171875 63.886719 7.71875 C 63.886719 5.261719 61.886719 3.265625 59.433594 3.265625 Z M 59.433594 3.265625 "/>
<path style=" stroke:none;fill-rule:nonzero;fill:rgb(0%,0%,0%);fill-opacity:1;" d="M 59.433594 118.210938 C 55.539062 118.210938 52.371094 115.042969 52.371094 111.148438 C 52.371094 107.253906 55.539062 104.085938 59.433594 104.085938 C 63.328125 104.085938 66.496094 107.253906 66.496094 111.148438 C 66.496094 115.042969 63.328125 118.210938 59.433594 118.210938 Z M 59.433594 106.699219 C 56.980469 106.699219 54.980469 108.695312 54.980469 111.148438 C 54.980469 113.601562 56.980469 115.601562 59.433594 115.601562 C 61.886719 115.601562 63.886719 113.601562 63.886719 111.148438 C 63.886719 108.695312 61.886719 106.699219 59.433594 106.699219 Z M 59.433594 106.699219 "/>
<path style=" stroke:none;fill-rule:nonzero;fill:rgb(0%,0%,0%);fill-opacity:1;" d="M 11.410156 75.117188 C 7.515625 75.117188 4.347656 71.949219 4.347656 68.054688 C 4.347656 64.15625 7.515625 60.988281 11.410156 60.988281 C 15.308594 60.988281 18.476562 64.15625 18.476562 68.054688 C 18.476562 71.949219 15.308594 75.117188 11.410156 75.117188 Z M 11.410156 63.601562 C 8.957031 63.601562 6.960938 65.597656 6.960938 68.050781 C 6.960938 70.507812 8.957031 72.503906 11.410156 72.503906 C 13.867188 72.503906 15.863281 70.507812 15.863281 68.050781 C 15.863281 65.597656 13.867188 63.601562 11.410156 63.601562 Z M 11.410156 63.601562 "/>
<path style=" stroke:none;fill-rule:nonzero;fill:rgb(0%,0%,0%);fill-opacity:1;" d="M 107.453125 75.117188 C 103.5625 75.117188 100.390625 71.949219 100.390625 68.054688 C 100.390625 64.15625 103.5625 60.988281 107.453125 60.988281 C 111.351562 60.988281 114.519531 64.15625 114.519531 68.054688 C 114.519531 71.949219 111.351562 75.117188 107.453125 75.117188 Z M 107.453125 63.601562 C 105 63.601562 103.003906 65.597656 103.003906 68.050781 C 103.003906 70.507812 105 72.503906 107.453125 72.503906 C 109.910156 72.503906 111.90625 70.507812 111.90625 68.050781 C 111.90625 65.597656 109.910156 63.601562 107.453125 63.601562 Z M 107.453125 63.601562 "/>
<path style=" stroke:none;fill-rule:nonzero;fill:rgb(0%,0%,0%);fill-opacity:1;" d="M 11.410156 57.878906 C 7.515625 57.878906 4.347656 54.707031 4.347656 50.8125 C 4.347656 46.917969 7.515625 43.75 11.410156 43.75 C 15.308594 43.75 18.476562 46.917969 18.476562 50.8125 C 18.476562 54.707031 15.308594 57.878906 11.410156 57.878906 Z M 11.410156 46.363281 C 8.957031 46.363281 6.960938 48.359375 6.960938 50.8125 C 6.960938 53.269531 8.957031 55.265625 11.410156 55.265625 C 13.867188 55.265625 15.863281 53.269531 15.863281 50.8125 C 15.863281 48.359375 13.867188 46.363281 11.410156 46.363281 Z M 11.410156 46.363281 "/>
<path style=" stroke:none;fill-rule:nonzero;fill:rgb(0%,0%,0%);fill-opacity:1;" d="M 107.453125 57.878906 C 103.5625 57.878906 100.390625 54.707031 100.390625 50.8125 C 100.390625 46.917969 103.5625 43.75 107.453125 43.75 C 111.351562 43.75 114.519531 46.917969 114.519531 50.8125 C 114.519531 54.707031 111.351562 57.878906 107.453125 57.878906 Z M 107.453125 46.363281 C 105 46.363281 103.003906 48.359375 103.003906 50.8125 C 103.003906 53.269531 105 55.265625 107.453125 55.265625 C 109.910156 55.265625 111.90625 53.269531 111.90625 50.8125 C 111.90625 48.359375 109.910156 46.363281 107.453125 46.363281 Z M 107.453125 46.363281 "/>
<path style=" stroke:none;fill-rule:nonzero;fill:rgb(0%,0%,0%);fill-opacity:1;" d="M 17.164062 49.507812 L 31.703125 49.507812 L 31.703125 52.117188 L 17.164062 52.117188 Z M 17.164062 49.507812 "/>
<path style=" stroke:none;fill-rule:nonzero;fill:rgb(0%,0%,0%);fill-opacity:1;" d="M 17.164062 66.75 L 31.703125 66.75 L 31.703125 69.359375 L 17.164062 69.359375 Z M 17.164062 66.75 "/>
<path style=" stroke:none;fill-rule:nonzero;fill:rgb(0%,0%,0%);fill-opacity:1;" d="M 87.164062 49.507812 L 101.703125 49.507812 L 101.703125 52.117188 L 87.164062 52.117188 Z M 87.164062 49.507812 "/>
<path style=" stroke:none;fill-rule:nonzero;fill:rgb(0%,0%,0%);fill-opacity:1;" d="M 87.164062 66.75 L 101.703125 66.75 L 101.703125 69.359375 L 87.164062 69.359375 Z M 87.164062 66.75 "/>
<path style=" stroke:none;fill-rule:nonzero;fill:rgb(0%,0%,0%);fill-opacity:1;" d="M 58.128906 13.480469 L 60.738281 13.480469 L 60.738281 28.660156 L 58.128906 28.660156 Z M 58.128906 13.480469 "/>
<path style=" stroke:none;fill-rule:nonzero;fill:rgb(0%,0%,0%);fill-opacity:1;" d="M 58.128906 90.222656 L 60.738281 90.222656 L 60.738281 105.398438 L 58.128906 105.398438 Z M 58.128906 90.222656 "/>
<path style=" stroke:none;fill-rule:nonzero;fill:rgb(0%,0%,0%);fill-opacity:1;" d="M 32.351562 24.714844 C 28.457031 24.714844 25.285156 21.542969 25.285156 17.648438 C 25.285156 13.753906 28.457031 10.585938 32.351562 10.585938 C 36.246094 10.585938 39.414062 13.753906 39.414062 17.648438 C 39.414062 21.542969 36.246094 24.714844 32.351562 24.714844 Z M 32.351562 13.199219 C 29.894531 13.199219 27.898438 15.195312 27.898438 17.648438 C 27.898438 20.105469 29.894531 22.101562 32.351562 22.101562 C 34.804688 22.101562 36.800781 20.105469 36.800781 17.648438 C 36.800781 15.195312 34.804688 13.199219 32.351562 13.199219 Z M 32.351562 13.199219 "/>
<path style=" stroke:none;fill-rule:nonzero;fill:rgb(0%,0%,0%);fill-opacity:1;" d="M 32.351562 108.28125 C 28.457031 108.28125 25.285156 105.113281 25.285156 101.214844 C 25.285156 97.320312 28.457031 94.152344 32.351562 94.152344 C 36.246094 94.152344 39.414062 97.320312 39.414062 101.214844 C 39.414062 105.113281 36.246094 108.28125 32.351562 108.28125 Z M 32.351562 96.765625 C 29.894531 96.765625 27.898438 98.761719 27.898438 101.214844 C 27.898438 103.671875 29.894531 105.667969 32.351562 105.667969 C 34.804688 105.667969 36.800781 103.671875 36.800781 101.214844 C 36.800781 98.761719 34.804688 96.765625 32.351562 96.765625 Z M 32.351562 96.765625 "/>
<path style=" stroke:none;fill-rule:nonzero;fill:rgb(0%,0%,0%);fill-opacity:1;" d="M 45.484375 36.78125 C 44.761719 36.78125 44.179688 36.195312 44.179688 35.472656 L 44.179688 26.988281 L 36.382812 22.027344 C 35.773438 21.640625 35.59375 20.832031 35.980469 20.226562 C 36.367188 19.617188 37.175781 19.4375 37.78125 19.824219 L 46.183594 25.167969 C 46.5625 25.410156 46.789062 25.824219 46.789062 26.269531 L 46.789062 35.476562 C 46.789062 36.195312 46.207031 36.78125 45.484375 36.78125 Z M 45.484375 36.78125 "/>
<path style=" stroke:none;fill-rule:nonzero;fill:rgb(0%,0%,0%);fill-opacity:1;" d="M 37.085938 99.246094 C 36.652344 99.246094 36.230469 99.03125 35.980469 98.640625 C 35.59375 98.03125 35.773438 97.226562 36.382812 96.839844 L 44.179688 91.878906 L 44.179688 83.390625 C 44.179688 82.667969 44.761719 82.085938 45.484375 82.085938 C 46.207031 82.085938 46.789062 82.667969 46.789062 83.390625 L 46.789062 92.597656 C 46.789062 93.042969 46.5625 93.457031 46.1875 93.699219 L 37.785156 99.042969 C 37.566406 99.179688 37.324219 99.246094 37.085938 99.246094 Z M 37.085938 99.246094 "/>
<path style=" stroke:none;fill-rule:nonzero;fill:rgb(0%,0%,0%);fill-opacity:1;" d="M 86.515625 24.714844 C 82.621094 24.714844 79.453125 21.542969 79.453125 17.648438 C 79.453125 13.753906 82.621094 10.585938 86.515625 10.585938 C 90.410156 10.585938 93.578125 13.753906 93.578125 17.648438 C 93.578125 21.542969 90.410156 24.714844 86.515625 24.714844 Z M 86.515625 13.199219 C 84.0625 13.199219 82.066406 15.195312 82.066406 17.648438 C 82.066406 20.105469 84.0625 22.101562 86.515625 22.101562 C 88.96875 22.101562 90.964844 20.105469 90.964844 17.648438 C 90.96875 15.195312 88.96875 13.199219 86.515625 13.199219 Z M 86.515625 13.199219 "/>
<path style=" stroke:none;fill-rule:nonzero;fill:rgb(0%,0%,0%);fill-opacity:1;" d="M 86.515625 108.28125 C 82.621094 108.28125 79.453125 105.113281 79.453125 101.214844 C 79.453125 97.320312 82.621094 94.152344 86.515625 94.152344 C 90.410156 94.152344 93.578125 97.320312 93.578125 101.214844 C 93.578125 105.113281 90.410156 108.28125 86.515625 108.28125 Z M 86.515625 96.765625 C 84.0625 96.765625 82.066406 98.761719 82.066406 101.214844 C 82.066406 103.671875 84.0625 105.667969 86.515625 105.667969 C 88.96875 105.667969 90.964844 103.671875 90.964844 101.214844 C 90.964844 98.761719 88.96875 96.765625 86.515625 96.765625 Z M 86.515625 96.765625 "/>
<path style=" stroke:none;fill-rule:nonzero;fill:rgb(0%,0%,0%);fill-opacity:1;" d="M 73.382812 36.78125 C 72.660156 36.78125 72.078125 36.195312 72.078125 35.472656 L 72.078125 26.269531 C 72.078125 25.820312 72.304688 25.40625 72.683594 25.167969 L 81.082031 19.824219 C 81.695312 19.4375 82.5 19.613281 82.886719 20.222656 C 83.277344 20.832031 83.09375 21.640625 82.488281 22.027344 L 74.691406 26.988281 L 74.691406 35.476562 C 74.691406 36.195312 74.105469 36.78125 73.382812 36.78125 Z M 73.382812 36.78125 "/>
<path style=" stroke:none;fill-rule:nonzero;fill:rgb(0%,0%,0%);fill-opacity:1;" d="M 81.78125 99.246094 C 81.542969 99.246094 81.300781 99.179688 81.082031 99.042969 L 72.679688 93.699219 C 72.304688 93.457031 72.074219 93.042969 72.074219 92.597656 L 72.074219 83.390625 C 72.074219 82.667969 72.660156 82.085938 73.382812 82.085938 C 74.105469 82.085938 74.6875 82.667969 74.6875 83.390625 L 74.6875 91.878906 L 82.484375 96.839844 C 83.09375 97.226562 83.273438 98.03125 82.886719 98.640625 C 82.636719 99.03125 82.214844 99.246094 81.78125 99.246094 Z M 81.78125 99.246094 "/>
</g>
</svg>
