<?xml version="1.0" encoding="UTF-8"?>
<svg xmlns="http://www.w3.org/2000/svg" xmlns:xlink="http://www.w3.org/1999/xlink" width="1998px" height="1217px" viewBox="0 0 1998 1217" version="1.1">
<g id="surface1">
<rect x="0" y="0" width="1998" height="1217" style="fill:rgb(20%,0%,33.333333%);fill-opacity:1;stroke:none;"/>
<path style=" stroke:none;fill-rule:nonzero;fill:rgb(20%,0%,33.333333%);fill-opacity:1;" d="M 1998 0 C 1998 33.605469 1550.734375 60.851562 999 60.851562 C 447.265625 60.851562 0 33.605469 0 0 C 0 -33.605469 447.265625 -60.851562 999 -60.851562 C 1550.734375 -60.851562 1998 -33.605469 1998 0 Z M 1998 0 "/>
<path style=" stroke:none;fill-rule:nonzero;fill:rgb(25.098039%,1.568627%,34.901961%);fill-opacity:1;" d="M 999 60.851562 C 999 94.457031 551.734375 121.699219 0 121.699219 C -551.734375 121.699219 -999 94.457031 -999 60.851562 C -999 27.242188 -551.734375 0 0 0 C 551.734375 0 999 27.242188 999 60.851562 Z M 999 60.851562 "/>
<path style=" stroke:none;fill-rule:nonzero;fill:rgb(25.098039%,1.568627%,34.901961%);fill-opacity:1;" d="M 2997 60.851562 C 2997 94.457031 2549.734375 121.699219 1998 121.699219 C 1446.265625 121.699219 999 94.457031 999 60.851562 C 999 27.242188 1446.265625 0 1998 0 C 2549.734375 0 2997 27.242188 2997 60.851562 Z M 2997 60.851562 "/>
<path style=" stroke:none;fill-rule:nonzero;fill:rgb(29.803922%,3.921569%,36.470588%);fill-opacity:1;" d="M 1998 121.699219 C 1998 155.304688 1550.734375 182.550781 999 182.550781 C 447.265625 182.550781 0 155.304688 0 121.699219 C 0 88.09375 447.265625 60.851562 999 60.851562 C 1550.734375 60.851562 1998 88.09375 1998 121.699219 Z M 1998 121.699219 "/>
<path style=" stroke:none;fill-rule:nonzero;fill:rgb(34.117647%,7.058824%,38.039216%);fill-opacity:1;" d="M 999 182.550781 C 999 216.15625 551.734375 243.398438 0 243.398438 C -551.734375 243.398438 -999 216.15625 -999 182.550781 C -999 148.945312 -551.734375 121.699219 0 121.699219 C 551.734375 121.699219 999 148.945312 999 182.550781 Z M 999 182.550781 "/>
<path style=" stroke:none;fill-rule:nonzero;fill:rgb(34.117647%,7.058824%,38.039216%);fill-opacity:1;" d="M 2997 182.550781 C 2997 216.15625 2549.734375 243.398438 1998 243.398438 C 1446.265625 243.398438 999 216.15625 999 182.550781 C 999 148.945312 1446.265625 121.699219 1998 121.699219 C 2549.734375 121.699219 2997 148.945312 2997 182.550781 Z M 2997 182.550781 "/>
<path style=" stroke:none;fill-rule:nonzero;fill:rgb(38.823529%,9.803922%,39.607843%);fill-opacity:1;" d="M 1998 243.398438 C 1998 277.007812 1550.734375 304.25 999 304.25 C 447.265625 304.25 0 277.007812 0 243.398438 C 0 209.792969 447.265625 182.550781 999 182.550781 C 1550.734375 182.550781 1998 209.792969 1998 243.398438 Z M 1998 243.398438 "/>
<path style=" stroke:none;fill-rule:nonzero;fill:rgb(43.137255%,12.54902%,41.176471%);fill-opacity:1;" d="M 999 304.25 C 999 337.855469 551.734375 365.101562 0 365.101562 C -551.734375 365.101562 -999 337.855469 -999 304.25 C -999 270.644531 -551.734375 243.398438 0 243.398438 C 551.734375 243.398438 999 270.644531 999 304.25 Z M 999 304.25 "/>
<path style=" stroke:none;fill-rule:nonzero;fill:rgb(43.137255%,12.54902%,41.176471%);fill-opacity:1;" d="M 2997 304.25 C 2997 337.855469 2549.734375 365.101562 1998 365.101562 C 1446.265625 365.101562 999 337.855469 999 304.25 C 999 270.644531 1446.265625 243.398438 1998 243.398438 C 2549.734375 243.398438 2997 270.644531 2997 304.25 Z M 2997 304.25 "/>
<path style=" stroke:none;fill-rule:nonzero;fill:rgb(47.45098%,15.686275%,42.745098%);fill-opacity:1;" d="M 1998 365.101562 C 1998 398.707031 1550.734375 425.949219 999 425.949219 C 447.265625 425.949219 0 398.707031 0 365.101562 C 0 331.492188 447.265625 304.25 999 304.25 C 1550.734375 304.25 1998 331.492188 1998 365.101562 Z M 1998 365.101562 "/>
<path style=" stroke:none;fill-rule:nonzero;fill:rgb(51.372549%,18.431373%,44.313725%);fill-opacity:1;" d="M 999 425.949219 C 999 459.554688 551.734375 486.800781 0 486.800781 C -551.734375 486.800781 -999 459.554688 -999 425.949219 C -999 392.34375 -551.734375 365.101562 0 365.101562 C 551.734375 365.101562 999 392.34375 999 425.949219 Z M 999 425.949219 "/>
<path style=" stroke:none;fill-rule:nonzero;fill:rgb(51.372549%,18.431373%,44.313725%);fill-opacity:1;" d="M 2997 425.949219 C 2997 459.554688 2549.734375 486.800781 1998 486.800781 C 1446.265625 486.800781 999 459.554688 999 425.949219 C 999 392.34375 1446.265625 365.101562 1998 365.101562 C 2549.734375 365.101562 2997 392.34375 2997 425.949219 Z M 2997 425.949219 "/>
<path style=" stroke:none;fill-rule:nonzero;fill:rgb(55.686275%,21.568627%,45.882353%);fill-opacity:1;" d="M 1998 486.800781 C 1998 520.40625 1550.734375 547.648438 999 547.648438 C 447.265625 547.648438 0 520.40625 0 486.800781 C 0 453.195312 447.265625 425.949219 999 425.949219 C 1550.734375 425.949219 1998 453.195312 1998 486.800781 Z M 1998 486.800781 "/>
<path style=" stroke:none;fill-rule:nonzero;fill:rgb(59.607843%,24.705882%,47.843137%);fill-opacity:1;" d="M 999 547.648438 C 999 581.257812 551.734375 608.5 0 608.5 C -551.734375 608.5 -999 581.257812 -999 547.648438 C -999 514.042969 -551.734375 486.800781 0 486.800781 C 551.734375 486.800781 999 514.042969 999 547.648438 Z M 999 547.648438 "/>
<path style=" stroke:none;fill-rule:nonzero;fill:rgb(59.607843%,24.705882%,47.843137%);fill-opacity:1;" d="M 2997 547.648438 C 2997 581.257812 2549.734375 608.5 1998 608.5 C 1446.265625 608.5 999 581.257812 999 547.648438 C 999 514.042969 1446.265625 486.800781 1998 486.800781 C 2549.734375 486.800781 2997 514.042969 2997 547.648438 Z M 2997 547.648438 "/>
<path style=" stroke:none;fill-rule:nonzero;fill:rgb(63.529412%,27.843137%,49.411765%);fill-opacity:1;" d="M 1998 608.5 C 1998 642.105469 1550.734375 669.351562 999 669.351562 C 447.265625 669.351562 0 642.105469 0 608.5 C 0 574.894531 447.265625 547.648438 999 547.648438 C 1550.734375 547.648438 1998 574.894531 1998 608.5 Z M 1998 608.5 "/>
<path style=" stroke:none;fill-rule:nonzero;fill:rgb(67.45098%,30.980392%,50.980392%);fill-opacity:1;" d="M 999 669.351562 C 999 702.957031 551.734375 730.199219 0 730.199219 C -551.734375 730.199219 -999 702.957031 -999 669.351562 C -999 635.742188 -551.734375 608.5 0 608.5 C 551.734375 608.5 999 635.742188 999 669.351562 Z M 999 669.351562 "/>
<path style=" stroke:none;fill-rule:nonzero;fill:rgb(67.45098%,30.980392%,50.980392%);fill-opacity:1;" d="M 2997 669.351562 C 2997 702.957031 2549.734375 730.199219 1998 730.199219 C 1446.265625 730.199219 999 702.957031 999 669.351562 C 999 635.742188 1446.265625 608.5 1998 608.5 C 2549.734375 608.5 2997 635.742188 2997 669.351562 Z M 2997 669.351562 "/>
<path style=" stroke:none;fill-rule:nonzero;fill:rgb(71.372549%,34.509804%,52.54902%);fill-opacity:1;" d="M 1998 730.199219 C 1998 763.804688 1550.734375 791.050781 999 791.050781 C 447.265625 791.050781 0 763.804688 0 730.199219 C 0 696.59375 447.265625 669.351562 999 669.351562 C 1550.734375 669.351562 1998 696.59375 1998 730.199219 Z M 1998 730.199219 "/>
<path style=" stroke:none;fill-rule:nonzero;fill:rgb(75.294118%,37.647059%,54.509804%);fill-opacity:1;" d="M 999 791.050781 C 999 824.65625 551.734375 851.898438 0 851.898438 C -551.734375 851.898438 -999 824.65625 -999 791.050781 C -999 757.445312 -551.734375 730.199219 0 730.199219 C 551.734375 730.199219 999 757.445312 999 791.050781 Z M 999 791.050781 "/>
<path style=" stroke:none;fill-rule:nonzero;fill:rgb(75.294118%,37.647059%,54.509804%);fill-opacity:1;" d="M 2997 791.050781 C 2997 824.65625 2549.734375 851.898438 1998 851.898438 C 1446.265625 851.898438 999 824.65625 999 791.050781 C 999 757.445312 1446.265625 730.199219 1998 730.199219 C 2549.734375 730.199219 2997 757.445312 2997 791.050781 Z M 2997 791.050781 "/>
<path style=" stroke:none;fill-rule:nonzero;fill:rgb(78.823529%,41.176471%,56.078431%);fill-opacity:1;" d="M 1998 851.898438 C 1998 885.507812 1550.734375 912.75 999 912.75 C 447.265625 912.75 0 885.507812 0 851.898438 C 0 818.292969 447.265625 791.050781 999 791.050781 C 1550.734375 791.050781 1998 818.292969 1998 851.898438 Z M 1998 851.898438 "/>
<path style=" stroke:none;fill-rule:nonzero;fill:rgb(82.352941%,44.705882%,58.039216%);fill-opacity:1;" d="M 999 912.75 C 999 946.355469 551.734375 973.601562 0 973.601562 C -551.734375 973.601562 -999 946.355469 -999 912.75 C -999 879.144531 -551.734375 851.898438 0 851.898438 C 551.734375 851.898438 999 879.144531 999 912.75 Z M 999 912.75 "/>
<path style=" stroke:none;fill-rule:nonzero;fill:rgb(82.352941%,44.705882%,58.039216%);fill-opacity:1;" d="M 2997 912.75 C 2997 946.355469 2549.734375 973.601562 1998 973.601562 C 1446.265625 973.601562 999 946.355469 999 912.75 C 999 879.144531 1446.265625 851.898438 1998 851.898438 C 2549.734375 851.898438 2997 879.144531 2997 912.75 Z M 2997 912.75 "/>
<path style=" stroke:none;fill-rule:nonzero;fill:rgb(86.27451%,48.235294%,60%);fill-opacity:1;" d="M 1998 973.601562 C 1998 1007.207031 1550.734375 1034.449219 999 1034.449219 C 447.265625 1034.449219 0 1007.207031 0 973.601562 C 0 939.992188 447.265625 912.75 999 912.75 C 1550.734375 912.75 1998 939.992188 1998 973.601562 Z M 1998 973.601562 "/>
<path style=" stroke:none;fill-rule:nonzero;fill:rgb(89.803922%,52.156863%,61.960784%);fill-opacity:1;" d="M 999 1034.449219 C 999 1068.054688 551.734375 1095.300781 0 1095.300781 C -551.734375 1095.300781 -999 1068.054688 -999 1034.449219 C -999 1000.84375 -551.734375 973.601562 0 973.601562 C 551.734375 973.601562 999 1000.84375 999 1034.449219 Z M 999 1034.449219 "/>
<path style=" stroke:none;fill-rule:nonzero;fill:rgb(89.803922%,52.156863%,61.960784%);fill-opacity:1;" d="M 2997 1034.449219 C 2997 1068.054688 2549.734375 1095.300781 1998 1095.300781 C 1446.265625 1095.300781 999 1068.054688 999 1034.449219 C 999 1000.84375 1446.265625 973.601562 1998 973.601562 C 2549.734375 973.601562 2997 1000.84375 2997 1034.449219 Z M 2997 1034.449219 "/>
<path style=" stroke:none;fill-rule:nonzero;fill:rgb(93.333333%,55.686275%,63.921569%);fill-opacity:1;" d="M 1998 1095.300781 C 1998 1128.90625 1550.734375 1156.148438 999 1156.148438 C 447.265625 1156.148438 0 1128.90625 0 1095.300781 C 0 1061.695312 447.265625 1034.449219 999 1034.449219 C 1550.734375 1034.449219 1998 1061.695312 1998 1095.300781 Z M 1998 1095.300781 "/>
<path style=" stroke:none;fill-rule:nonzero;fill:rgb(96.470588%,59.215686%,65.882353%);fill-opacity:1;" d="M 999 1156.148438 C 999 1189.757812 551.734375 1217 0 1217 C -551.734375 1217 -999 1189.757812 -999 1156.148438 C -999 1122.542969 -551.734375 1095.300781 0 1095.300781 C 551.734375 1095.300781 999 1122.542969 999 1156.148438 Z M 999 1156.148438 "/>
<path style=" stroke:none;fill-rule:nonzero;fill:rgb(96.470588%,59.215686%,65.882353%);fill-opacity:1;" d="M 2997 1156.148438 C 2997 1189.757812 2549.734375 1217 1998 1217 C 1446.265625 1217 999 1189.757812 999 1156.148438 C 999 1122.542969 1446.265625 1095.300781 1998 1095.300781 C 2549.734375 1095.300781 2997 1122.542969 2997 1156.148438 Z M 2997 1156.148438 "/>
<path style=" stroke:none;fill-rule:nonzero;fill:rgb(100%,63.137255%,68.235294%);fill-opacity:1;" d="M 1998 1217 C 1998 1250.605469 1550.734375 1277.851562 999 1277.851562 C 447.265625 1277.851562 0 1250.605469 0 1217 C 0 1183.394531 447.265625 1156.148438 999 1156.148438 C 1550.734375 1156.148438 1998 1183.394531 1998 1217 Z M 1998 1217 "/>
</g>
</svg>
