<?xml version="1.0" encoding="UTF-8"?>
<svg xmlns="http://www.w3.org/2000/svg" xmlns:xlink="http://www.w3.org/1999/xlink" width="2000px" height="1200px" viewBox="0 0 2000 1200" version="1.1">
<defs>
<radialGradient id="radial0" gradientUnits="userSpaceOnUse" cx="500" cy="500" fx="500" fy="500" r="500" gradientTransform="matrix(2,0,0,1.2,0,0)">
<stop offset="0" style="stop-color:rgb(86.666667%,20%,73.333333%);stop-opacity:1;"/>
<stop offset="1" style="stop-color:rgb(26.666667%,0%,26.666667%);stop-opacity:1;"/>
</radialGradient>
<radialGradient id="radial1" gradientUnits="userSpaceOnUse" cx="500" cy="500" fx="500" fy="500" r="600" gradientTransform="matrix(2,0,0,1.2,0,0)">
<stop offset="0" style="stop-color:rgb(100%,46.666667%,0%);stop-opacity:0.301961;"/>
<stop offset="1" style="stop-color:rgb(100%,46.666667%,0%);stop-opacity:0;"/>
</radialGradient>
</defs>
<g id="surface1">
<rect x="0" y="0" width="2000" height="1200" style="fill:rgb(86.666667%,20%,73.333333%);fill-opacity:1;stroke:none;"/>
<rect x="0" y="0" width="2000" height="1200" style="fill:url(#radial0);stroke:none;"/>
<path style="fill:none;stroke-width:1;stroke-linecap:butt;stroke-linejoin:miter;stroke:rgb(100%,40%,73.333333%);stroke-opacity:0.301961;stroke-miterlimit:10;" d="M 12.5 12.5 L 987.5 12.5 L 987.5 987.5 L 12.5 987.5 Z M 12.5 12.5 " transform="matrix(2,0,0,1.2,0,0)"/>
<path style="fill:none;stroke-width:1;stroke-linecap:butt;stroke-linejoin:miter;stroke:rgb(100%,40%,73.333333%);stroke-opacity:0.301961;stroke-miterlimit:10;" d="M 25 25 L 975 25 L 975 975 L 25 975 Z M 25 25 " transform="matrix(2,0,0,1.2,0,0)"/>
<path style="fill:none;stroke-width:1;stroke-linecap:butt;stroke-linejoin:miter;stroke:rgb(100%,40%,73.333333%);stroke-opacity:0.301961;stroke-miterlimit:10;" d="M 37.5 37.5 L 962.5 37.5 L 962.5 962.5 L 37.5 962.5 Z M 37.5 37.5 " transform="matrix(2,0,0,1.2,0,0)"/>
<path style="fill:none;stroke-width:1;stroke-linecap:butt;stroke-linejoin:miter;stroke:rgb(100%,40%,73.333333%);stroke-opacity:0.301961;stroke-miterlimit:10;" d="M 50 50 L 950 50 L 950 950 L 50 950 Z M 50 50 " transform="matrix(2,0,0,1.2,0,0)"/>
<path style="fill:none;stroke-width:1;stroke-linecap:butt;stroke-linejoin:miter;stroke:rgb(100%,40%,73.333333%);stroke-opacity:0.301961;stroke-miterlimit:10;" d="M 62.5 62.5 L 937.5 62.5 L 937.5 937.5 L 62.5 937.5 Z M 62.5 62.5 " transform="matrix(2,0,0,1.2,0,0)"/>
<path style="fill:none;stroke-width:1;stroke-linecap:butt;stroke-linejoin:miter;stroke:rgb(100%,40%,73.333333%);stroke-opacity:0.301961;stroke-miterlimit:10;" d="M 75 75 L 925 75 L 925 925 L 75 925 Z M 75 75 " transform="matrix(2,0,0,1.2,0,0)"/>
<path style="fill:none;stroke-width:1;stroke-linecap:butt;stroke-linejoin:miter;stroke:rgb(100%,40%,73.333333%);stroke-opacity:0.301961;stroke-miterlimit:10;" d="M 87.5 87.5 L 912.5 87.5 L 912.5 912.5 L 87.5 912.5 Z M 87.5 87.5 " transform="matrix(2,0,0,1.2,0,0)"/>
<path style="fill:none;stroke-width:1;stroke-linecap:butt;stroke-linejoin:miter;stroke:rgb(100%,40%,73.333333%);stroke-opacity:0.301961;stroke-miterlimit:10;" d="M 100 100 L 900 100 L 900 900 L 100 900 Z M 100 100 " transform="matrix(2,0,0,1.2,0,0)"/>
<path style="fill:none;stroke-width:1;stroke-linecap:butt;stroke-linejoin:miter;stroke:rgb(100%,40%,73.333333%);stroke-opacity:0.301961;stroke-miterlimit:10;" d="M 112.5 112.5 L 887.5 112.5 L 887.5 887.5 L 112.5 887.5 Z M 112.5 112.5 " transform="matrix(2,0,0,1.2,0,0)"/>
<path style="fill:none;stroke-width:1;stroke-linecap:butt;stroke-linejoin:miter;stroke:rgb(100%,40%,73.333333%);stroke-opacity:0.301961;stroke-miterlimit:10;" d="M 125 125 L 875 125 L 875 875 L 125 875 Z M 125 125 " transform="matrix(2,0,0,1.2,0,0)"/>
<path style="fill:none;stroke-width:1;stroke-linecap:butt;stroke-linejoin:miter;stroke:rgb(100%,40%,73.333333%);stroke-opacity:0.301961;stroke-miterlimit:10;" d="M 137.5 137.5 L 862.5 137.5 L 862.5 862.5 L 137.5 862.5 Z M 137.5 137.5 " transform="matrix(2,0,0,1.2,0,0)"/>
<path style="fill:none;stroke-width:1;stroke-linecap:butt;stroke-linejoin:miter;stroke:rgb(100%,40%,73.333333%);stroke-opacity:0.301961;stroke-miterlimit:10;" d="M 150 150 L 850 150 L 850 850 L 150 850 Z M 150 150 " transform="matrix(2,0,0,1.2,0,0)"/>
<path style="fill:none;stroke-width:1;stroke-linecap:butt;stroke-linejoin:miter;stroke:rgb(100%,40%,73.333333%);stroke-opacity:0.301961;stroke-miterlimit:10;" d="M 162.5 162.5 L 837.5 162.5 L 837.5 837.5 L 162.5 837.5 Z M 162.5 162.5 " transform="matrix(2,0,0,1.2,0,0)"/>
<path style="fill:none;stroke-width:1;stroke-linecap:butt;stroke-linejoin:miter;stroke:rgb(100%,40%,73.333333%);stroke-opacity:0.301961;stroke-miterlimit:10;" d="M 175 175 L 825 175 L 825 825 L 175 825 Z M 175 175 " transform="matrix(2,0,0,1.2,0,0)"/>
<path style="fill:none;stroke-width:1;stroke-linecap:butt;stroke-linejoin:miter;stroke:rgb(100%,40%,73.333333%);stroke-opacity:0.301961;stroke-miterlimit:10;" d="M 187.5 187.5 L 812.5 187.5 L 812.5 812.5 L 187.5 812.5 Z M 187.5 187.5 " transform="matrix(2,0,0,1.2,0,0)"/>
<path style="fill:none;stroke-width:1;stroke-linecap:butt;stroke-linejoin:miter;stroke:rgb(100%,40%,73.333333%);stroke-opacity:0.301961;stroke-miterlimit:10;" d="M 200 200 L 800 200 L 800 800 L 200 800 Z M 200 200 " transform="matrix(2,0,0,1.2,0,0)"/>
<path style="fill:none;stroke-width:1;stroke-linecap:butt;stroke-linejoin:miter;stroke:rgb(100%,40%,73.333333%);stroke-opacity:0.301961;stroke-miterlimit:10;" d="M 212.5 212.5 L 787.5 212.5 L 787.5 787.5 L 212.5 787.5 Z M 212.5 212.5 " transform="matrix(2,0,0,1.2,0,0)"/>
<path style="fill:none;stroke-width:1;stroke-linecap:butt;stroke-linejoin:miter;stroke:rgb(100%,40%,73.333333%);stroke-opacity:0.301961;stroke-miterlimit:10;" d="M 225 225 L 775 225 L 775 775 L 225 775 Z M 225 225 " transform="matrix(2,0,0,1.2,0,0)"/>
<path style="fill:none;stroke-width:1;stroke-linecap:butt;stroke-linejoin:miter;stroke:rgb(100%,40%,73.333333%);stroke-opacity:0.301961;stroke-miterlimit:10;" d="M 237.5 237.5 L 762.5 237.5 L 762.5 762.5 L 237.5 762.5 Z M 237.5 237.5 " transform="matrix(2,0,0,1.2,0,0)"/>
<path style="fill:none;stroke-width:1;stroke-linecap:butt;stroke-linejoin:miter;stroke:rgb(100%,40%,73.333333%);stroke-opacity:0.301961;stroke-miterlimit:10;" d="M 250 250 L 750 250 L 750 750 L 250 750 Z M 250 250 " transform="matrix(2,0,0,1.2,0,0)"/>
<path style="fill:none;stroke-width:1;stroke-linecap:butt;stroke-linejoin:miter;stroke:rgb(100%,40%,73.333333%);stroke-opacity:0.301961;stroke-miterlimit:10;" d="M 262.5 262.5 L 737.5 262.5 L 737.5 737.5 L 262.5 737.5 Z M 262.5 262.5 " transform="matrix(2,0,0,1.2,0,0)"/>
<path style="fill:none;stroke-width:1;stroke-linecap:butt;stroke-linejoin:miter;stroke:rgb(100%,40%,73.333333%);stroke-opacity:0.301961;stroke-miterlimit:10;" d="M 275 275 L 725 275 L 725 725 L 275 725 Z M 275 275 " transform="matrix(2,0,0,1.2,0,0)"/>
<path style="fill:none;stroke-width:1;stroke-linecap:butt;stroke-linejoin:miter;stroke:rgb(100%,40%,73.333333%);stroke-opacity:0.301961;stroke-miterlimit:10;" d="M 287.5 287.5 L 712.5 287.5 L 712.5 712.5 L 287.5 712.5 Z M 287.5 287.5 " transform="matrix(2,0,0,1.2,0,0)"/>
<path style="fill:none;stroke-width:1;stroke-linecap:butt;stroke-linejoin:miter;stroke:rgb(100%,40%,73.333333%);stroke-opacity:0.301961;stroke-miterlimit:10;" d="M 300 300 L 700 300 L 700 700 L 300 700 Z M 300 300 " transform="matrix(2,0,0,1.2,0,0)"/>
<path style="fill:none;stroke-width:1;stroke-linecap:butt;stroke-linejoin:miter;stroke:rgb(100%,40%,73.333333%);stroke-opacity:0.301961;stroke-miterlimit:10;" d="M 312.5 312.5 L 687.5 312.5 L 687.5 687.5 L 312.5 687.5 Z M 312.5 312.5 " transform="matrix(2,0,0,1.2,0,0)"/>
<path style="fill:none;stroke-width:1;stroke-linecap:butt;stroke-linejoin:miter;stroke:rgb(100%,40%,73.333333%);stroke-opacity:0.301961;stroke-miterlimit:10;" d="M 325 325 L 675 325 L 675 675 L 325 675 Z M 325 325 " transform="matrix(2,0,0,1.2,0,0)"/>
<path style="fill:none;stroke-width:1;stroke-linecap:butt;stroke-linejoin:miter;stroke:rgb(100%,40%,73.333333%);stroke-opacity:0.301961;stroke-miterlimit:10;" d="M 337.5 337.5 L 662.5 337.5 L 662.5 662.5 L 337.5 662.5 Z M 337.5 337.5 " transform="matrix(2,0,0,1.2,0,0)"/>
<path style="fill:none;stroke-width:1;stroke-linecap:butt;stroke-linejoin:miter;stroke:rgb(100%,40%,73.333333%);stroke-opacity:0.301961;stroke-miterlimit:10;" d="M 350 350 L 650 350 L 650 650 L 350 650 Z M 350 350 " transform="matrix(2,0,0,1.2,0,0)"/>
<path style="fill:none;stroke-width:1;stroke-linecap:butt;stroke-linejoin:miter;stroke:rgb(100%,40%,73.333333%);stroke-opacity:0.301961;stroke-miterlimit:10;" d="M 362.5 362.5 L 637.5 362.5 L 637.5 637.5 L 362.5 637.5 Z M 362.5 362.5 " transform="matrix(2,0,0,1.2,0,0)"/>
<path style="fill:none;stroke-width:1;stroke-linecap:butt;stroke-linejoin:miter;stroke:rgb(100%,40%,73.333333%);stroke-opacity:0.301961;stroke-miterlimit:10;" d="M 375 375 L 625 375 L 625 625 L 375 625 Z M 375 375 " transform="matrix(2,0,0,1.2,0,0)"/>
<path style="fill:none;stroke-width:1;stroke-linecap:butt;stroke-linejoin:miter;stroke:rgb(100%,40%,73.333333%);stroke-opacity:0.301961;stroke-miterlimit:10;" d="M 387.5 387.5 L 612.5 387.5 L 612.5 612.5 L 387.5 612.5 Z M 387.5 387.5 " transform="matrix(2,0,0,1.2,0,0)"/>
<path style="fill:none;stroke-width:1;stroke-linecap:butt;stroke-linejoin:miter;stroke:rgb(100%,40%,73.333333%);stroke-opacity:0.301961;stroke-miterlimit:10;" d="M 400 400 L 600 400 L 600 600 L 400 600 Z M 400 400 " transform="matrix(2,0,0,1.2,0,0)"/>
<path style="fill:none;stroke-width:1;stroke-linecap:butt;stroke-linejoin:miter;stroke:rgb(100%,40%,73.333333%);stroke-opacity:0.301961;stroke-miterlimit:10;" d="M 412.5 412.5 L 587.5 412.5 L 587.5 587.5 L 412.5 587.5 Z M 412.5 412.5 " transform="matrix(2,0,0,1.2,0,0)"/>
<path style="fill:none;stroke-width:1;stroke-linecap:butt;stroke-linejoin:miter;stroke:rgb(100%,40%,73.333333%);stroke-opacity:0.301961;stroke-miterlimit:10;" d="M 425 425 L 575 425 L 575 575 L 425 575 Z M 425 425 " transform="matrix(2,0,0,1.2,0,0)"/>
<path style="fill:none;stroke-width:1;stroke-linecap:butt;stroke-linejoin:miter;stroke:rgb(100%,40%,73.333333%);stroke-opacity:0.301961;stroke-miterlimit:10;" d="M 437.5 437.5 L 562.5 437.5 L 562.5 562.5 L 437.5 562.5 Z M 437.5 437.5 " transform="matrix(2,0,0,1.2,0,0)"/>
<path style="fill:none;stroke-width:1;stroke-linecap:butt;stroke-linejoin:miter;stroke:rgb(100%,40%,73.333333%);stroke-opacity:0.301961;stroke-miterlimit:10;" d="M 450 450 L 550 450 L 550 550 L 450 550 Z M 450 450 " transform="matrix(2,0,0,1.2,0,0)"/>
<path style="fill:none;stroke-width:1;stroke-linecap:butt;stroke-linejoin:miter;stroke:rgb(100%,40%,73.333333%);stroke-opacity:0.301961;stroke-miterlimit:10;" d="M 462.5 462.5 L 537.5 462.5 L 537.5 537.5 L 462.5 537.5 Z M 462.5 462.5 " transform="matrix(2,0,0,1.2,0,0)"/>
<path style="fill:none;stroke-width:1;stroke-linecap:butt;stroke-linejoin:miter;stroke:rgb(100%,40%,73.333333%);stroke-opacity:0.301961;stroke-miterlimit:10;" d="M 475 475 L 525 475 L 525 525 L 475 525 Z M 475 475 " transform="matrix(2,0,0,1.2,0,0)"/>
<path style="fill:none;stroke-width:1;stroke-linecap:butt;stroke-linejoin:miter;stroke:rgb(100%,40%,73.333333%);stroke-opacity:0.301961;stroke-miterlimit:10;" d="M 487.5 487.5 L 512.5 487.5 L 512.5 512.5 L 487.5 512.5 Z M 487.5 487.5 " transform="matrix(2,0,0,1.2,0,0)"/>
<rect x="0" y="0" width="2000" height="1200" style="fill:url(#radial1);stroke:none;"/>
</g>
</svg>
