<?xml version="1.0" encoding="UTF-8"?>
<svg xmlns="http://www.w3.org/2000/svg" xmlns:xlink="http://www.w3.org/1999/xlink" width="103px" height="103px" viewBox="0 0 103 103" version="1.1">
<g id="surface1">
<path style=" stroke:none;fill-rule:nonzero;fill:rgb(0%,0%,0%);fill-opacity:1;" d="M 51.441406 0.566406 C 23.34375 0.566406 0.566406 23.34375 0.566406 51.441406 C 0.566406 79.539062 23.34375 102.320312 51.441406 102.320312 C 79.539062 102.320312 102.320312 79.539062 102.320312 51.441406 C 102.320312 23.34375 79.539062 0.566406 51.441406 0.566406 Z M 26.082031 57.886719 C 26.082031 59.136719 25.066406 60.148438 23.820312 60.148438 C 22.570312 60.148438 21.558594 59.136719 21.558594 57.886719 L 21.558594 44.996094 C 21.558594 43.75 22.570312 42.734375 23.820312 42.734375 C 25.066406 42.734375 26.082031 43.75 26.082031 44.996094 Z M 35.289062 71.699219 C 35.289062 72.945312 34.277344 73.960938 33.027344 73.960938 C 31.777344 73.960938 30.765625 72.945312 30.765625 71.699219 L 30.765625 31.1875 C 30.765625 29.9375 31.777344 28.925781 33.027344 28.925781 C 34.277344 28.925781 35.289062 29.9375 35.289062 31.1875 Z M 44.496094 85.511719 C 44.496094 86.757812 43.484375 87.769531 42.234375 87.769531 C 40.988281 87.769531 39.972656 86.757812 39.972656 85.511719 L 39.972656 17.375 C 39.972656 16.125 40.988281 15.113281 42.234375 15.113281 C 43.484375 15.113281 44.496094 16.125 44.496094 17.375 Z M 53.703125 71.699219 C 53.703125 72.945312 52.691406 73.960938 51.441406 73.960938 C 50.195312 73.960938 49.179688 72.945312 49.179688 71.699219 L 49.179688 31.1875 C 49.179688 29.9375 50.195312 28.925781 51.441406 28.925781 C 52.691406 28.925781 53.703125 29.9375 53.703125 31.1875 Z M 62.910156 57.886719 C 62.910156 59.136719 61.898438 60.148438 60.648438 60.148438 C 59.402344 60.148438 58.386719 59.136719 58.386719 57.886719 L 58.386719 44.996094 C 58.386719 43.75 59.402344 42.734375 60.648438 42.734375 C 61.898438 42.734375 62.910156 43.75 62.910156 44.996094 Z M 72.117188 71.699219 C 72.117188 72.945312 71.105469 73.960938 69.855469 73.960938 C 68.609375 73.960938 67.597656 72.945312 67.597656 71.699219 L 67.597656 31.1875 C 67.597656 29.9375 68.609375 28.925781 69.855469 28.925781 C 71.105469 28.925781 72.117188 29.9375 72.117188 31.1875 Z M 81.324219 57.886719 C 81.324219 59.136719 80.3125 60.148438 79.066406 60.148438 C 77.816406 60.148438 76.804688 59.136719 76.804688 57.886719 L 76.804688 44.996094 C 76.804688 43.75 77.816406 42.734375 79.066406 42.734375 C 80.3125 42.734375 81.324219 43.75 81.324219 44.996094 Z M 81.324219 57.886719 "/>
</g>
</svg>
