<?xml version="1.0" encoding="UTF-8"?>
<svg xmlns="http://www.w3.org/2000/svg" xmlns:xlink="http://www.w3.org/1999/xlink" width="303px" height="303px" viewBox="0 0 303 303" version="1.1">
<g id="surface1">
<path style=" stroke:none;fill-rule:nonzero;fill:rgb(0%,0%,0%);fill-opacity:1;" d="M 151.328125 1.671875 L 151.332031 1.664062 C 68.675781 1.664062 1.664062 68.671875 1.664062 151.328125 C 1.664062 233.992188 68.675781 300.996094 151.332031 300.996094 C 233.988281 300.996094 300.996094 233.992188 300.996094 151.328125 C 300.996094 68.679688 233.992188 1.671875 151.328125 1.671875 Z M 219.96875 217.523438 L 219.964844 217.527344 C 219.964844 217.523438 219.964844 217.523438 219.96875 217.523438 C 217.28125 221.933594 211.535156 223.3125 207.140625 220.625 C 171.992188 199.148438 127.757812 194.292969 75.660156 206.195312 C 70.640625 207.34375 65.636719 204.199219 64.492188 199.179688 C 63.339844 194.160156 66.472656 189.15625 71.507812 188.011719 C 128.519531 174.976562 177.421875 180.589844 216.871094 204.695312 C 221.265625 207.390625 222.660156 213.125 219.96875 217.523438 Z M 238.28125 176.777344 C 234.898438 182.269531 227.714844 183.992188 222.230469 180.617188 C 182.011719 155.894531 120.679688 148.734375 73.09375 163.175781 C 66.925781 165.039062 60.40625 161.5625 58.535156 155.402344 C 56.675781 149.230469 60.152344 142.726562 66.316406 140.847656 C 120.671875 124.355469 188.242188 132.34375 234.441406 160.734375 C 239.925781 164.113281 241.660156 171.300781 238.28125 176.777344 Z M 239.859375 134.339844 C 191.613281 105.691406 112.039062 103.058594 65.984375 117.035156 C 58.585938 119.273438 50.769531 115.101562 48.527344 107.707031 C 46.285156 100.308594 50.457031 92.492188 57.855469 90.246094 C 110.722656 74.199219 198.609375 77.300781 254.144531 110.265625 C 260.796875 114.214844 262.976562 122.804688 259.035156 129.445312 C 255.101562 136.097656 246.488281 138.289062 239.859375 134.339844 Z M 239.859375 134.339844 "/>
</g>
</svg>
