<?xml version="1.0" encoding="UTF-8"?>
<svg xmlns="http://www.w3.org/2000/svg" xmlns:xlink="http://www.w3.org/1999/xlink" width="163px" height="125px" viewBox="0 0 163 125" version="1.1">
<g id="surface1">
<path style=" stroke:none;fill-rule:nonzero;fill:rgb(96.470588%,98.039216%,98.823529%);fill-opacity:1;" d="M 13.582031 12.496094 L 48.898438 12.496094 L 48.898438 16.664062 L 13.582031 16.664062 Z M 13.582031 12.496094 "/>
<path style=" stroke:none;fill-rule:nonzero;fill:rgb(96.470588%,98.039216%,98.823529%);fill-opacity:1;" d="M 13.582031 20.828125 L 48.898438 20.828125 L 48.898438 24.996094 L 13.582031 24.996094 Z M 13.582031 20.828125 "/>
<path style=" stroke:none;fill-rule:nonzero;fill:rgb(96.470588%,98.039216%,98.823529%);fill-opacity:1;" d="M 13.582031 29.164062 L 38.035156 29.164062 L 38.035156 33.328125 L 13.582031 33.328125 Z M 13.582031 29.164062 "/>
<path style=" stroke:none;fill-rule:nonzero;fill:rgb(96.470588%,98.039216%,98.823529%);fill-opacity:1;" d="M 13.582031 37.496094 L 38.035156 37.496094 L 38.035156 41.664062 L 13.582031 41.664062 Z M 13.582031 37.496094 "/>
<path style=" stroke:none;fill-rule:nonzero;fill:rgb(96.470588%,98.039216%,98.823529%);fill-opacity:1;" d="M 0 120.828125 L 163 120.828125 L 163 124.996094 L 0 124.996094 Z M 0 120.828125 "/>
<path style=" stroke:none;fill-rule:nonzero;fill:rgb(49.019608%,72.156863%,69.411765%);fill-opacity:1;" d="M 11.097656 93.746094 L 10.636719 89.578125 C 67.40625 85.804688 116.03125 56.878906 134.910156 15.648438 L 141.429688 1.390625 L 146.558594 2.765625 L 140.039062 17.023438 C 120.460938 59.808594 70.003906 89.832031 11.097656 93.746094 Z M 11.097656 93.746094 "/>
<path style=" stroke:none;fill-rule:nonzero;fill:rgb(49.019608%,72.156863%,69.411765%);fill-opacity:1;" d="M 13.582031 102.078125 L 32.601562 102.078125 L 32.601562 114.578125 L 13.582031 114.578125 Z M 13.582031 102.078125 "/>
<path style=" stroke:none;fill-rule:nonzero;fill:rgb(86.27451%,69.803922%,47.058824%);fill-opacity:1;" d="M 43.464844 95.828125 L 62.484375 95.828125 L 62.484375 114.578125 L 43.464844 114.578125 Z M 43.464844 95.828125 "/>
<path style=" stroke:none;fill-rule:nonzero;fill:rgb(85.490196%,81.176471%,63.137255%);fill-opacity:1;" d="M 73.351562 85.414062 L 92.367188 85.414062 L 92.367188 114.578125 L 73.351562 114.578125 Z M 73.351562 85.414062 "/>
<path style=" stroke:none;fill-rule:nonzero;fill:rgb(37.647059%,59.215686%,56.862745%);fill-opacity:1;" d="M 103.234375 70.828125 L 122.25 70.828125 L 122.25 114.578125 L 103.234375 114.578125 Z M 103.234375 70.828125 "/>
<path style=" stroke:none;fill-rule:nonzero;fill:rgb(55.686275%,72.156863%,83.137255%);fill-opacity:1;" d="M 133.117188 41.664062 L 152.132812 41.664062 L 152.132812 114.578125 L 133.117188 114.578125 Z M 133.117188 41.664062 "/>
<path style=" stroke:none;fill-rule:nonzero;fill:rgb(49.019608%,72.156863%,69.411765%);fill-opacity:1;" d="M 154.851562 20.828125 C 153.816406 20.832031 152.867188 20.386719 152.40625 19.675781 L 142.753906 4.886719 L 123.464844 12.289062 C 122.121094 12.800781 120.488281 12.382812 119.820312 11.355469 C 119.148438 10.324219 119.695312 9.074219 121.035156 8.558594 L 142.769531 0.226562 C 144.109375 -0.289062 145.742188 0.125 146.414062 1.15625 L 157.28125 17.824219 C 157.945312 18.855469 157.390625 20.105469 156.046875 20.613281 C 155.671875 20.753906 155.265625 20.828125 154.851562 20.828125 Z M 154.851562 20.828125 "/>
</g>
</svg>
